<mxfile host="app.diagrams.net" modified="2023-08-11T07:31:35.820Z" agent="Mozilla/5.0 (Macintosh; Intel Mac OS X 10_15_7) AppleWebKit/605.1.15 (KHTML, like Gecko) Version/16.6 Safari/605.1.15" etag="MXJTvOqMGI3FYUN6Oqop" version="21.6.5" type="github">
  <diagram name="Page-1" id="gv_aMTUHYD-A999a8YG7">
    <mxGraphModel dx="3816" dy="2588" grid="1" gridSize="10" guides="1" tooltips="1" connect="1" arrows="1" fold="1" page="1" pageScale="1" pageWidth="700" pageHeight="400" math="0" shadow="0">
      <root>
        <mxCell id="0" />
        <mxCell id="1" parent="0" />
        <mxCell id="Eqsi48yskrdOmXO4-OAM-2" value="" style="shape=image;verticalLabelPosition=bottom;labelBackgroundColor=default;verticalAlign=top;aspect=fixed;imageAspect=0;image=data:image/png,iVBORw0KGgoAAAANSUhEUgAAB4AAAAQ4CAYAAADo08FDAAAAAXNSR0IArs4c6QAAAARzQklUCAgICHwIZIgAAAAJcEhZcwAADsQAAA7EAZUrDhsAAARxaVRYdFhNTDpjb20uYWRvYmUueG1wAAAAAAA8P3hwYWNrZXQgYmVnaW49J++7vycgaWQ9J1c1TTBNcENlaGlIenJlU3pOVGN6a2M5ZCc/Pgo8eDp4bXBtZXRhIHhtbG5zOng9J2Fkb2JlOm5zOm1ldGEvJz4KPHJkZjpSREYgeG1sbnM6cmRmPSdodHRwOi8vd3d3LnczLm9yZy8xOTk5LzAyLzIyLXJkZi1zeW50YXgtbnMjJz4KCiA8cmRmOkRlc2NyaXB0aW9uIHJkZjphYm91dD0nJwogIHhtbG5zOkF0dHJpYj0naHR0cDovL25zLmF0dHJpYnV0aW9uLmNvbS9hZHMvMS4wLyc+CiAgPEF0dHJpYjpBZHM+CiAgIDxyZGY6U2VxPgogICAgPHJkZjpsaSByZGY6cGFyc2VUeXBlPSdSZXNvdXJjZSc+CiAgICAgPEF0dHJpYjpDcmVhdGVkPjIwMjMtMDctMjg8L0F0dHJpYjpDcmVhdGVkPgogICAgIDxBdHRyaWI6RXh0SWQ+ZTQyMmYxZjUtNDg1OC00OGViLTlhZjktNmE3NjI2NzlkMmExPC9BdHRyaWI6RXh0SWQ+CiAgICAgPEF0dHJpYjpGYklkPjUyNTI2NTkxNDE3OTU4MDwvQXR0cmliOkZiSWQ+CiAgICAgPEF0dHJpYjpUb3VjaFR5cGU+MjwvQXR0cmliOlRvdWNoVHlwZT4KICAgIDwvcmRmOmxpPgogICA8L3JkZjpTZXE+CiAgPC9BdHRyaWI6QWRzPgogPC9yZGY6RGVzY3JpcHRpb24+CgogPHJkZjpEZXNjcmlwdGlvbiByZGY6YWJvdXQ9JycKICB4bWxuczpkYz0naHR0cDovL3B1cmwub3JnL2RjL2VsZW1lbnRzLzEuMS8nPgogIDxkYzp0aXRsZT4KICAgPHJkZjpBbHQ+CiAgICA8cmRmOmxpIHhtbDpsYW5nPSd4LWRlZmF1bHQnPkxpdmUgKHByb2R1Y3Rpb24pIC0gNTwvcmRmOmxpPgogICA8L3JkZjpBbHQ+CiAgPC9kYzp0aXRsZT4KIDwvcmRmOkRlc2NyaXB0aW9uPgoKIDxyZGY6RGVzY3JpcHRpb24gcmRmOmFib3V0PScnCiAgeG1sbnM6cGRmPSdodHRwOi8vbnMuYWRvYmUuY29tL3BkZi8xLjMvJz4KICA8cGRmOkF1dGhvcj5TYW1teSBNSDwvcGRmOkF1dGhvcj4KIDwvcmRmOkRlc2NyaXB0aW9uPgoKIDxyZGY6RGVzY3JpcHRpb24gcmRmOmFib3V0PScnCiAgeG1sbnM6eG1wPSdodHRwOi8vbnMuYWRvYmUuY29tL3hhcC8xLjAvJz4KICA8eG1wOkNyZWF0b3JUb29sPkNhbnZhPC94bXA6Q3JlYXRvclRvb2w+CiA8L3JkZjpEZXNjcmlwdGlvbj4KPC9yZGY6UkRGPgo8L3g6eG1wbWV0YT4KPD94cGFja2V0IGVuZD0ncic/PrDa6+8AACAASURBVHic7N17dJXVnT/gb7g4ASQEFSIMl6AiAlojMgL2kgBqnaojbadVV7ENVYu9UJjSFix2iDpoHWtNW7sQtTVKsUovRusaSr0QekFKkUutUirFKNZKQRMBldUK+f3RHxmdnBNuyXmTN8+zFkvde5/zfg5KTM7n7P3mNTQ0NAQAAAAAAAAA7V6npAMAAAAAAAAA0DIUwAAAAAAAAAApoQAGAAAAAAAASAkFMAAAAAAAAEBKKIABAAAAAAAAUkIBDAAAAAAAAJASCmAAAAAAAACAlFAAAwAAAAAAAKSEAhgAAAAAAAAgJRTAAAAAAAAAACmhAAYAAAAAAABICQUwAAAAAAAAQEoogAEAAAAAAABSQgEMAAAAAAAAkBIKYAAAAAAAAICUUAADAAAAAAAApIQCGAAAAAAAACAlFMAAAAAAAAAAKaEABgAAAAAAAEgJBTAAAAAAAABASiiAAQAAAAAAAFJCAQwAAAAAAACQEgpgAAAAAAAAgJRQAAMAAAAAAACkhAIYAAAAAAAAICUUwAAAAAAAAAApoQAGAAAAAAAASAkFMAAAAAAAAEBKKIABAAAAAAAAUkIBDAAAAAAAAJASCmAAAAAAAACAlFAAAwAAAAAAAKSEAhgAAAAAAAAgJRTAAAAAAAAAACmhAAYAAAAAAABICQUwAAAAAAAAQEoogAEAAAAAAABSQgEMAAAAAAAAkBIKYAAAAAAAAICUUAADAAAAAAAApIQCGAAAAAAAACAlFMAAAAAAAAAAKaEABgAAAAAAAEgJBTAAAAAAAABASiiAAQAAAAAAAFJCAQwAAAAAAACQEgpgAAAAAAAAgJRQAAMAAAAAAACkhAIYAAAAAAAAICUUwAAAAAAAAAApoQAGAAAAAAAASAkFMAAAAAAAAEBKKIABAAAAAAAAUkIBDAAAAAAAAJASCmAAAAAAAACAlFAAAwAAAAAAAKSEAhgAAAAAAAAgJRTAAAAAAAAAACmhAAYAAAAAAABICQUwAAAAAAAAQEoogAEAAAAAAABSQgEMAAAAAAAAkBIKYAAAAAAAAICUUAADAAAAAAAApIQCGAAAAAAAACAlFMAAAAAAAAAAKaEABgAAAAAAAEgJBTAAAAAAAABASiiAAQAAAAAAAFJCAQwAAAAAAACQEgpgAAAAAAAAgJRQAAMAAAAAAACkhAIYAAAAAAAAICUUwAAAAAAAAAApoQAGAAAAAAAASAkFMAAAAAAAAEBKKIABAAAAAAAAUkIBDAAAAAAAAJASCmAAAAAAAACAlFAAAwAAAAAAAKSEAhgAAAAAAAAgJRTAAAAAAAAAACmhAAYAAAAAAABICQUwAAAAAAAAQEoogAEAAAAAAABSQgEMAAAAAAAAkBIKYAAAAAAAAICUUAADAAAAAAAApIQCGAAAAAAAACAlFMAAAAAAAAAAKaEABgAAAAAAAEgJBTAAAAAAAABASiiAAQAAAAAAAFJCAQwAAAAAAACQEgpgAAAAAAAAgJRQAAMAAAAAAACkhAIYAAAAAAAAICUUwAAAAAAAAAApoQAGAAAAAAAASAkFMAAAAAAAAEBKKIABAAAAAAAAUkIBDAAAAAAAAJASCmAAAAAAAACAlFAAAwAAAAAAAKSEAhgAAAAAAAAgJbokHQCAiDfeeCN27doVe/bsafzV0NCQdKz9OuKII6J///4Z5/7+97/Hn//85xwnOnhdu3aNf/7nf84499Zbb8WLL76Y40QHr0uXLjFgwICMc+3lNXTu3DkGDhyYcW7Pnj2xZcuWHCc6eJ06dYpBgwZlnNu7d2+88MILOU508PLy8mLw4MFZ52tra3MX5jAUFxdnnfMaWl6nTp2ic+fO0blz5+jSpUt07tw58vPzo1u3bklHAwAAAOiQ8hraQ8MAkAJ//etfo2/fvhnnvvGNb8TMmTNznOjwnXzyyfHUU09lnHvmmWdi5MiROU508IYOHRp//OMfM8796U9/ihNOOCHHiQ7eoEGD4vnnn8849+KLL2YtVtuSoqKiePnllzPObdu2LeufnbaksLAw6urqMs7t2LEjevXqleNEB69bt27xxhtvZJ3Py8vLYZpD19y3t15D7vgxAwAAACAZjoAGaCUvv/xy3HHHHXHJJZdE375945JLLsm6tk+fPjlMBgCta9iwYVnntmzZEldddVXU1NTkLhAAAABAB+IIaIAWtnjx4qiqqoolS5a8Y3zFihVZH9MedjcCwIFq7gjrhx9+OL72ta/F1772tRgwYEB8/OMfjylTprSLExcAAAAA2gM7gAFawMaNG2PatGnRq1evuOiii5qUvxERu3fvjrVr12Z8vB3AAKTJkCFDss49+uijjX//4osvxvXXXx9Dhw6NcePGxXe/+91cxAMAAABINQUwwGFYunRpnHvuuXHSSSfFrbfeGjt27Gh2fbZdwApgANKkuR3AS5cuzTi+cuXKuPzyy+PYY4+Na6+9Nl555ZVWSgcAAACQbo6ABjgE99xzT8ybNy/++Mc/HtTjVqxYEZ/97GebjA8cOLClogFA4rLtAF61alW8/vrrzT5269atMXfu3Jg7d25MnTo1rr32WrdKADhIu3fvjt27d8dbb70Ve/bsecevtuToo4+Onj17Nhl/5ZVXYufOnQkkyuyoo46KgoKCJuOvvvrqfj8EnEvZctbV1cVrr72WQKLMevfuHb169Woy3tZyFhYWRmFhYZPx+vr6qK+vTyBRZr169YrevXs3GX/ttdeirq4ugUSZZcu5Y8eOePXVVxNIlFlBQUEcddRRTcbbWs6ePXvG0Ucf3WR8586dbeqDlEceeWQcc8wxTcZ37doV27dvb/axnTt3ji5dukTnzp2jc+fO0bVr1+jWrVt07dq1teICpIoCGOAgrF+/PqZOnRq/+c1vDunxTzzxRNa5Cy64ILp37x69e/eOo48+Orp0aftfopt7Q75Pnz4xd+7cHKY5NJl+YNqnd+/e7eI1ZHrzZJ+CgoJ28RqOPPLIrHPdu3dvF68hPz8/61x7+fewvx+k28NryMvLa3a+PbyG/bnuuuvirbfeSjpGozfffDN27drV+Ov111+PESNGZFz7yCOPHNRzL1iwIBYtWhRXX311zJo1qyXiAqTO448/HjU1NfHMM8/Exo0bY9OmTbF79+6kYx2Q2267LaZOndpk/Ktf/WrMnz8/gUSZfetb34pp06Y1Gb/22mvjm9/8ZgKJMvv6178eM2fObDJ+ww03xE033ZRAosyuv/76uOqqq5qM33zzzTFv3rwEEmVWUVGR8XvHb33rW23qe8qvfOUrGX/f5s+fn/H3OSlf/OIXM/53eOedd2b87zYpn//85zP+ub7nnnsyfh1IytSpU+O2225rMv6DH/wg49fVpEyZMiW+973vNRn/0Y9+FFOmTDmk5+zdu3cMGzYshg0bFu9617uirKwsRo0adbhRAVKn7bcLAG3A9u3bY9asWRm/aT1QRx55ZJSUlGSdf+ihhw75uduiPn36REVFRdIxDstRRx3V7l9DQUFBu38NPXr0aPevISK8hjYiDa/h6quvTjrCIXv7/X8P1K5du2L27Nlx5513xi233BLnn39+KyQDaL9uu+22+OEPf5h0DAByaH8ffG0rWiNnXV1drFy5MlauXNk41rt37xg/fnxMmDAhLrjgghg0aFCLXxegvXEPYID9+PnPfx4nnnjiIZW/J510UnzhC1+Ixx57LHbu3Bk/+clPWiEhALQPd999d9xyyy3xvve976Afu2nTprjgggviYx/72H6PkQZImy1btsTq1aszzp155pk5TgMAbUtdXV385Cc/ic997nMxePDgmDhxYixcuDDeeOONpKMBJEYBDNCMmTNnxvvf//6Dum9Oz5494ytf+Ups3rw5NmzYEDfffHNMmDChFVMCQPswaNCgmDFjRixfvjy2bdsWCxYsiLPOOuugnuPee++N0047LZ566qlWSgnQdixcuDDKyspi0KBBMX369IxrFMAA8E6PP/54fPzjH4++ffvGJz/5yVi7dm3SkQByTgEMkMGWLVti9OjR8Y1vfOOAH9OvX7+48cYb46WXXop58+bFkCFDWjEhALRvxxxzTHzqU5+KRx55JNasWRPnnXfeAT/22WefjTFjxsSdd97ZigkBkvHaa6/FjTfeGAMHDoyPf/zjsXz58oiIWLFiRbz44otN1p9xxhm5jggA7cLrr78ed911V4waNSrKyspSd/s1gOa4BzDA//G73/0uJkyYEK+88soBrR86dGh86UtfiiuuuKKVkwFAOp122mnx8MMPx+rVq+Pqq6+OpUuX7vcxb775ZlxxxRWxfv36+Pa3v52DlACta/v27XHdddfFHXfcEW+++WbGNVVVVRnvBf++970vfvGLXzT+84ABA+L444+PgoKC6NmzZxx55JGNf21LTj/99Izj5513XvTt2zfHabLLVrKfe+65UVhYmOM02Y0bNy7j+Nlnnx3du3fPcZrs3vOe92QcnzBhQnTp0nbeqiwtLc06Pnfu3Bynye69731vxvH3vOc9bSpnttMKxo0b16ZyjhkzJuP4GWec0aZyjh49OuP46aef3qZynnbaaRnHS0pKms25Z8+e2LZtW2zbti22b98e27dvb/znQ7V8+fJYvnx5DBkyJGbPnh2f+tSnDvm5ANqDvIaGhoakQwC0FStXroz3v//9sWPHjv2uzc/Pj4qKipg1a1YOkgFAx/Hzn/88ysvL4y9/+csBrb/44ovjBz/4QSunAmg9lZWVcc0110R9fX2z60444YR49tlnm4wvXbo06urqYtiwYTF8+PDIz89vragAkKinnnoqfvvb3zb+evLJJw/peU499dRYsGBB1tIfoL1TAAP8f4899lhccMEFWT9t/3ZjxoyJu+++O4YNG5aDZADQ8ezcuTNmzZoV8+fPP6D155xzTlRXV0e3bt1aORlAy3nsscfi05/+dMZSN5snn3wyRo0a1YqpAKB9WbFiRTz44IOxcOHCA/4QaUREr169YsuWLdGzZ89WTAeQDAUwQEQsWbIkPvCBD+x3Xbdu3eK6666LmTNn5iAVALBy5cr42Mc+Fps3b97v2ne/+92xdOnS6NGjRw6SARy63bt3x7Rp0w7qXuajRo2KadOmRXl5eesFA4B27pe//GXce++98cMf/nC/t3e7884747LLLstRMoDcUgADHd6qVauitLQ0du/e3ey6/v37x9KlS+Pkk0/OUTIAYJ8vf/nLcdNNN+133YQJE+Kxxx7LQSKAQ7Nx48a48MILY+PGjQe0/qMf/WhMmzYt631TAYDMbr311rjhhhvipZdeajI3bty4WLFiRQKpAHJDAQx0aBs3boyxY8fu915bJ598cjz22GPRt2/fHCUDAP6vRx99NC688MJ44403ml03efLkWLhwYY5SARy4qqqq+NznPhevv/76ftdOnjw5rr322hgyZEgOkgFAen3zm9+MefPmxbZt2xrHnnnmmRg+fHjG9X/5y1+iX79+uYoH0Co6JR0AICkvvfRSTJgwYb/l7wc+8IH4zW9+o/wFgISdddZZ8etf/zr69OnT7Lrvf//7cdVVV+UoFcCB+Y//+I+YMmXKfsvf0tLSWLt2bSxcuFD5CwAtYPr06fH888/HzTffHH379o3Zs2dnLX9nzJgRI0aMiFWrVuU4JUDLsgMY6JB2794dY8aMid/97nfNrps5c2Z8/etfz1EqAOBAPP/88zFx4sT405/+1Oy6u+66y70ygTbhM5/5TMyfP7/ZNb17947vfOc7cckll+QoFQB0PPtOE+revXuTuXvuuSc+8YlPREREt27dorq6Os4555yc5gNoKQpgoEO68sorY8GCBc2uufHGG+PLX/5yjhIBAAfj1VdfjXe/+93xhz/8Ieua/Pz8WL16dYwcOTKHyQDeafLkybFo0aJm15x11lnx/e9/P4qKinKUCgB4u1WrVsWYMWOajP/4xz+OD33oQwkkAjg8CmCgw1m8eHFcdNFFza657LLL4s4778xRIgDgUNTW1sa//Mu/xPbt27OuGTp0aPzud7+L/Pz8HCYD+IcPf/jD8ZOf/CTrfI8ePeKmm26KT3/60zlMBQC83bZt22LkyJHvuEfw291xxx1x+eWX5zgVwOFxD2CgQ6mtrY0pU6Y0u+bf/u3flL8A0A4UFxfHkiVLolu3blnXPPvss/HZz342h6kA/uHyyy9vtvzt27dvPPHEE8pfAEjYk08+mbX8jYi44oor4qGHHsphIoDDpwAGOpSPfvSjjff6yOSMM86I+++/P4eJAIDDMXr06Fi8eHGza773ve9FdXV1jhIBRFxzzTXx3e9+N+t8cXFx/OY3v4lTTjklh6kAgEzOPffcePzxx6NHjx5Z11x44YXxq1/9KoepAA6PI6CBDuP222+PqVOnZp0//vjjY/Xq1VFYWJjDVABAS7j55pvji1/8Ytb5fv36xaZNm6J79+45TAV0RN/97nebPSbylFNOiUcffTT69u2bw1QAwP48+eSTcdZZZ0V9fX3G+Z49e8aKFSvi5JNPznEygIOnAAY6hB07dsTgwYOzfgMXEfHUU0/5Bg4A2rEPfOADsWTJkqzzX/nKV2LevHk5TAR0NI888kicc845WefHjRsXP/vZz6KgoCCHqQCAA/XUU0/F+PHj45VXXsk4P2DAgFi7dm0cc8wxOU4GcHAcAQ10CPn5+fH5z38+6z0Cv/CFLyh/AaCdW7BgQbPz119/fWzevDlHaYCOZuvWrXHJJZdknR82bFgsXbpU+QsAbdgpp5wSP/vZz7LOv/jii3HxxRfnMBHAoelcUVFRkXQIgNbWuXPnGD9+fHziE5+IP//5z/H00083zg0YMCAeeOCB6Nq1a4IJAYDD1atXr8jPz4/HHnss65q6urr44Ac/mMNUQEdx7rnnxsaNGzPOFRUVxYoVK+wWAoB2oH///nHKKafE4sWLM84/99xzceSRR8aZZ56Z42QAB84OYKBDGTBgQNx///3xq1/9Kk499dSIiLjzzjuz7gwGANqX2bNnx7Bhw5qM9+7dO2688cb97hIGOBRz586NX//61xnnevbsGY8++mj0798/x6kAgEP14Q9/OG6++eas81/60pdi1apVOUwEcHDcAxjo0H7605/GBRdckHQMAKAFrVixIt797ndHRESPHj1i+vTpMWvWLMeuAq1i5cqVMW7cuKzzv/zlL+M973lPDhMBAC3lM5/5TMyfPz/jXHFxcTz33HM5TgRwYBTAAABA6kydOjW6du0a//mf/xl9+/ZNOg6QYu9617viqaeeyjh30003xRe/+MUcJwIAWtI555wTjzzySMa5uXPnhrtsAm2RAhgAAADgENx6660xbdq0jHNnnnlm1mOhAYD2o76+Pk444YR45ZVXMs6/8MILMXDgwBynAmieewADqXXvvffGsmXLko4BAACk1MSJExuPnH+7/Pz8+MEPfpBAIgCgpRUWFsZ3vvOdrPNXXnllDtMAHBgFMJBas2bNigkTJsRJJ50UlZWVUV9fn3QkAAAgRYYPHx6/+tWv4oc//GEUFxc3jt9yyy0xaNCg5IIBAC3qoosuirPPPjvj3P/8z//EkiVLcpwIoHmOgAZS6Ze//GW8733ve8dYt27d4qKLLoorr7wyxowZk1AyACBpdXV1sXjx4nj22Wfj61//etJxgBT5r//6r1i5cmU8/PDDSUcBAFrYc889FyNHjow333yzydzo0aPjt7/9bQKpADJTAAOpdOWVV8aCBQsyzvXr1y9eeumlHCcCAJK0e/fueOihh2LRokXx0EMPNY6//PLLUVRUlGAyAACgvfjv//7vmDVrVsa55cuXN9mQApAUR0ADqXT//fdnnfvwhz+cwyQAQNK++tWvxjHHHBMXXXTRO8rfiIjFixcnlAoAAGhvvvzlL2f9AOkNN9yQ4zQA2SmAgdT59a9/3ez9fs8///wcpgEAkvbqq6/G66+/nnFu6dKlOU4DtHcPPPBAbNy4MekYAEBCZsyYkXH8Zz/7Wfz+97/PcRqAzBTAQOosW7Ys61y3bt3i/e9/fw7TAABJO+uss7LOLV++PIdJgDS47LLL4qSTToqJEyfGAw88kHQcACDHPvvZz0b37t0zzn3rW9/KcRqAzBTAQOo8/vjjWef+9V//NYdJAIC24Jxzzsk6t2vXrli1alUO0wDt2U9/+tOoq6uLiH/83PGhD30oBg8eHF/72tcSTgYA5ErPnj3j8ssvzzh333335TgNQGYKYCB1mtsBfMEFF+QwCQDQFvTo0SPGjBmTdb657x0A3m7RokVNxl544YV45JFHEkgDACRl+vTpGcd37twZDz30UI7TADSlAAZSZX/HOCqAAaBjOvvss7PO/eIXv8hhEqC92rVrVzz44IMZ58rLy3MbBgBI1HHHHRcf+chHMs7de++9OU4D0JQCGEiVDRs2ZJ0bO3ZsHH300TlMAwC0Fc3dB/gPf/hDDpMA7dUDDzwQu3fvbjLeo0ePrG8AAwDpNXPmzIzjDz74YLz++us5TgPwTgpgIFX++Mc/Zp0bPXp0DpMAAG1JaWlp1rnNmzfnMAnQXi1ZsiTj+EUXXRT5+fk5TgMAJG3MmDFx3HHHNRnfvXu3U4aAxCmAgVTZuHFj1rn+/fvnMAkA0NacdtppWeeef/75HCYB2qNsBfAHP/jBHCcBANqKCRMmZBxftmxZjpMAvJMCGEiV5nYAK4ABoGPr06dP1rkXXnghh0mA9mbDhg1RX1+fcW78+PE5TgMAtBXZvg9QAANJUwADqbJp06asc/369cthEgCgrWmuAP7zn/+cwyRAe/P4449nHB83blz06NEjx2kAgLYi2w7g1atXx65du3KcBuB/KYCB1GhoaGh23g5gAOjYmiuAd+zYkcMkQHuT7T5+2d70BQA6hmOPPTaGDRuWcW79+vU5TgPwv7okHQAgVxTAANCxNVcA+3Q+0Jxnnnkm4/iYMWNynAQAaGvOPvvs6N69e4wePTpOP/30OP3002P06NFJxwI6OAUwkBr72wF81FFH5SgJANAWHXPMMVnndu7cmcMkQHvz+9//PuP4iBEjcpwEAGhrvv3tbycdAaAJR0ADHcKQIUOSjgAAJMwOYOBQNPcBkeOPPz6HSQAAAA6MAhhIjeZ2ADe34wcA6BiOPvrorHMKYCCb+vr6jOMlJSU5TgIAAHBgFMBAh9C5c+ekIwAACevatWvWuT179uQwCdCe7NixI+O4458BAIC2SgEMAAAAkMXf/va3jOMDBgzIcRIAoL2oq6uLTZs2xd69e5OOAnRQCmAAAACALN56662M40ceeWSOkwAAbdW0adPipJNOij59+kReXl4cddRRMXToULeaARLTJekAAAAAAG3V3//+94zjPXv2zHESAKCteu6552Ljxo1NxrOdJALQ2uwABgAAAMjCDmAAYH/y8/MzjiuAgaQogAEAAACyyFYAZ3ujFwDoeI444oiM4wpgICkKYAAAAAAAgEPUqVPmqqWhoSHHSQD+QQEMAAAAAAAAkBIKYAAAAAAAAICUUAADAAAAAAAApIQCGAAAAAAAACAlFMAAAAAAAAAAKaEABgAAAAAAAEgJBTAAAAAAAABASiiAAQAAAAAAAFJCAQwAAAAAAACQEgpgAAAAAAAAgJRQAAMAAAAAAACkhAIYAAAAAAAAICUUwAAAAAAAAAAp0SXpAAAAAABtVWFhYZSWljYZLyoqSiANAADA/imAgdTIy8vL+MZMRMSIESNynAYAAEiDUaNGRU1NTdIxAAAADpgCGEiNTp06eWMGAAAAAADo0BTAAABAh1BQUJD1tJATTzwxx2kAAAAAWocCGAAA6BBGjhzptBAAAAAg9TolHQAAAAAAAACAlmEHMAAAAEAWdXV1sX79+ibjw4cPj6KiogQSAQAANE8BDAAAAJDF2rVrY+LEiU3GFy5cGJMnT04gEQAAQPMUwEBqNDQ0xPLlyzPOFRQUxKhRo3KcCAAAAAAAILcUwEBq7N27N8aPH59xbuzYsfHEE0/kOBEAAAAAAEBuKYABAIAOYceOHbFmzZqMc/369Ythw4blOBEAAABAy1MAAwAAHcLTTz+d9bSQK664Im6//fYcJwIAAABoeZ2SDgAAAAAAAABAy1AAAwAAAAAAAKSEAhgAAAAAAAAgJRTAAAAAAAAAACmhAAYAAAAAAABIiS5JBwAAAAAAAGivhg8fHqWlpU3G8/PzE0gDoAAGAAAAAAA4ZHPmzIk5c+YkHQOgkQIYAKAD2bt3b+zduzfpGHBAunTx4woAAADAwfKOCsAh6tq1a7z11ltJxwA6kIaGhsN+juuuuy4eeuih6NmzZwskgtazZs2aqK+vj06dOiUdBQAAAKBdUQADHIZjjz02pk6dmnQMIOXuuOOOeOmll1rs+RYsWBCjR49useeD1nDGGWckHQEAAACgXVIAAxyGfv36RUVFRdIxgJRbsmRJixbAAAAAAEB6KYABAAAAAAAO0YYNG2Lr1q1NxseOHRv5+fkJJAI6OgUwAAAAAADAIZo3b14sWrSoyfjmzZtjyJAhCSQCOrpOSQcAAAAAAAAAoGXYAQwAAADQRtx6661JRwA6kHPOOSdOPPHEw3qOPXv2xG233dZCiaB1nXfeeVFcXJx0DIBWpwAGAAAAaCOmTZuWdASgA1m0aNFhF8B/+9vf4kc/+lHMnTu3hVJB61i+fHk8/fTTCmCgQ1AAAwAAALQh//mf/xnXXHNN0jGAFPvrX/8aRUVFLfZ8ffr0ibKyshZ7PmgN27dvTzoCQM64BzAAAAAAAABASiiAAQAAAAAAAFJCAQwAAAAAAACQEgpgAAAAAAAAgJRQAAMAAAAAAACkhAIYAAAAAAAAICUUwAAAAAAAAAApoQAGAAAAAAAASAkFMAAAAAAAAEBKKIABAAAAAAAAUkIBDAAAAAAAAJASCmAAAAAAAACAa134/wAAIABJREFUlFAAAwAAAAAAAKREl6QDAADQfl188cVx//33Jx2DNuLvf/97dOniRwwgXQoLC6O0tLTJeFFRUQJpAAAA9s+7MwAAHJba2toYPHhw0jFI2HHHHZd0BIBWMWrUqKipqUk6BgAAwAFzBDQAAAAAAABASiiAAQAAAAAAAFJCAQwAAAAAAACQEgpgAAAAAAAAgJToknQAAFre9773vbjsssuSjgHtyic+8YmoqqpKOgYA0MbU1dXF+vXrm4wPHz48ioqKEkgEkG4NDQ3x/PPPJx2DNqJPnz7Ro0ePpGMAtDsKYAAAAIAs1q5dGxMnTmwyvnDhwpg8eXICiQDSra6uLj7ykY/Eeeedl3QUErZ69eqYPHlyXHzxxUlHAWh3FMBAauTl5UVpaWnGuREjRuQ4DQC0HzNmzIjy8vIoKSlpdl19fX3U1NTEpEmTcpQMAICO6IwzzoiKioqkY5Cw2267LekIAO2WAhhIjU6dOkVNTU3SMQCg3SkvL49JkyZFdXV11hK4vr4+xo8fH9OnT89xOgAAAAAOhgIYAAA6uJKSkqiurs5aAr+9/C0vL08mZAsoKCjIelrIiSeemOM0AAAAAK1DAQwAADSWwGVlZVFTU9NYAqel/I2IGDlypNNCAAAAgNTrlHQAAACgbSgpKYnKysooKyuLdevWNZa/F154YbsvfwEAAAA6CjuAAQCARvuK3tLS0jjuuOPi1FNPjYqKikQzAQAAAHDgFMAAAMA7lJeXx/HHHx9PPvlkzJgxI+k4AABAO1RbWxvFxcVJxwDokBTAQGo0NDTE8uXLM84VFBTEqFGjcpwIANqv9773vfHe97436RgAAEA7tG7duigrK4uampooKSnJum7fbWeWLVsWhYWFOUwIkG4KYCA19u7dG+PHj884N3bs2HjiiSdynAgAAAAAOp6SkpKorKxstgTeV/5Onz5d+QvQwhTAAABAh7Bjx45Ys2ZNxrl+/frFsGHDcpwIAADSq7y8PCIiYwm8r/w99dRTG9e1Z8OHD4/S0tIm4/n5+QmkAVAAAwAAHcTTTz+d9bSQK664Im6//fYcJwIAgHTLVAK/vfytqqpKNF9LmTNnTsyZMyfpGACNFMAAAAAAAECreHsJ/NOf/jQ+//nPp6r8BWiLFMAAAByW4uLipCMAAADQhu0rgadPn678BcgBBTAAAIfsvvvui/vuuy/pGAAAALRx5eXlqbjfL0B70CnpAAAAAAAAAAC0DDuAAQAAAAAADtGGDRti69atTcbHjh0b+fn5CSQCOjoFMAAAAAAAwCGaN29eLFq0qMn45s2bY8iQIQkkAjo6R0ADAAAAAAAApIQdwACHIS8vL+kIAAAAAKmyatWqqKioSDoGCVu9enVMnjw56RgA7ZICGOAwNDQ0JB0BAAAAIDUKCgripptuSjoGbUBZWVmMGDEi6RgA7ZICGAAAAACANqFLly5RVlaWdAwAaNfcAxgAAAAAAAAgJRTAAAAAAAAAACmhAAYAAAAAAABICQUwAAAAAAAAQEp0SToAAC3vk5/8ZHzyk59MOgYAAED8+Mc/jn//939POgYckp49e8aOHTuSjgEAcFAUwAAAAAC0moaGhoiIGDJkSAwaNCjhNHDgVq1aFXl5eUnHaBVpfV0AwD8ogAEA2rh9b5oCAB1DWv/f/6lPfSpmz56ddAw4YMOGDYu//OUvScdoFWn9OgMA/IN7AAMAAAAAAACkhAIYAAAAAAAAICUUwAAAAAAAAAApoQAGAAAAAAAASAkFMAAAAAAAAEBKKIABAAAAAAAAUqJL0gEAAAAA2qrCwsIoLS1tMl5UVJRAGgAAgP1TAAMAAABkMWrUqKipqUk6BgAAwAFzBDQAAAAAAABASiiAAQAAAAAAAFJCAQwAAAAAAACQEgpgAAAAAAAAgJToknQAAADSZ8OGDbF169akY9BKhg8fHkVFRUnHAMiJurq6WL9+fZNxXwsBAIC2SgEMAECLu/766+P73/9+0jFoJffcc09ceumlSccAyIm1a9fGxIkTm4wvXLgwJk+enEAiAACA5jkCGgAAAAAAACAlFMAAAAAAAAAAKaEABgAAAAAAAEgJBTAAAAAAAABASiiAAQAAAAAAAFKiS9IBAAAAAACgOVu3bo358+cnHYNWUlRUFJ/+9KeTjgGQGgpgAAAAAADatJdffjmuueaapGPQSk455RQFMEALUgADqZGXlxelpaUZ50aMGJHjNAAAAAAAALmnAAZSo1OnTlFTU5N0DAAAAAAAgMQogAFSqra2NukIicvPz49jjz32sJ7D72PH0b9//zjiiCOSjgG0ooKCgqynhZx44ok5TgMAAKTF8OHDM/6skZ+fn0AaAAUwQGpVV1dHSUlJ0jESVV1dHZWVlYf1HEOGDGmhNLR1a9asidNOOy3pGEArGjlypNNCAACAFjdnzpyYM2dO0jEAGimAAVKqpKQkysrKko6RKG/yAwAAAADQ0XRKOgAAAAAAAAAALcMOYAAAWtxJJ53U4U8hSLPDvb86AAAAAK1HAQykRkNDQyxfvjzjXEFBQYwaNSrHiQA6Lvc/AgAAAIBkKICB1Ni7d2+MHz8+49zYsWPjiSeeyHEiAAAAACDtNmzYEFu3bm0yPnbs2MjPz08gEdDRKYABAIAOYceOHbFmzZqMc/369Ythw4blOBEAAJAG8+bNi0WLFjUZ37x5cwwZMiSBREBHpwAGAAA6hKeffjrraSFXXHFF3H777TlOBAAAANDyOiUdAAAAAAAAAICWoQAGAAAAAAAASAlHQANAM5YtW5Z0BHJk6NChSUcAAAAgi2OPPTbmzp2bdAxaSVFRUdIRAFJFAQwAzSgrK0s6AgAAAHR4RUVFUVFRkXQMAGgXHAENAAAAAAAAkBIKYAAAAAAAAICUUAADAAAAAAAApIR7AANAM7Zs2RINDQ1Jx+AADRgwIDp18vk2AAAAAKDjUgADQDMUwO1L//79FcAAAAAAQIfmHVIAAAAAAACAlFAAAwAAAAAAAKSEAhgAAAAAAAAgJRTAAAAAAAAAACmhAAYAAAAAAABIiS5JBwAAIH3efPPN+Nvf/pZ0DFpJ9+7do2vXrknHAAAAACADBTAANKOgoCDpCByEvLy8pCPw/23ZsiW2bduWdAxaydChQ6Nv375JxwAAAAAgAwUwADTj5JNPTjoCAAAJKiwsjNLS0ibjRUVFCaQBAADYPwUwAIeltrY2Hnzwwaivrz+g9aWlpVFWVta6oQAAoIWMGjUqampqko4BAABwwBTAAByy2traKC8vj4qKigN+zLp166KmpuagHgMAAAAAABwYBTAAh6yqqioqKiqa3dFbU1MTlZWVUVhY2Lh20qRJuQsJAAAAAAAdSKekAwCQbpWVlVFdXR0VFRWNu34P9LhoAAAAAADg4NgBDECrq62tjXXr1kVJSUnSUQAAAIB2aPfu3bFp06akY9BK/umf/imGDh2adAyA1FAAA9CqqqqqGo+AnjFjRtJxAADgoNTV1cX69eubjA8fPjyKiooSSATQMe3Zsydee+21pGPQSrp37550BIBUUQAD0GLq6+ujpqbmHff43XfvXwAAaI/Wrl0bEydObDK+cOHCmDx5cgKJAAAAmqcABqBF1NfXx6RJk6KwsDDq6+ujvLw86UgAAAAAANDhdEo6AADt377Ct7KyMqqrq6Ompiaqqqreseaaa65pMgYAAAAAALQsBTAAh2XdunVRXl4eVVVVUVJSEhH/uO/v20vgKVOmxODBgyPiH0Vwe1VfXx+nnXbaQT+uoqLioMvv9nAtAAAAAADaHgUwAIelqqoqqqqqorCwsMn4unXrYvz48VFaWhrl5eVRXl4egwcPjuXLlyeU9vBUVVXF4MGDo6am5qAeV1NTE9XV1Qd9rV69euXkWtXV1dGrV6+DfhwAAAAAAG2PewADcFgqKyublL9vn6utrY3i4uLGsX27hduTfYV1dXV1VFdXR3l5eeTl5UVERGlpacbH1NbWxvPPPx81NTVRXl4etbW1cffdd0dxcXEMHjz4Hb8nB3KtXr16Ne6wPphrnXrqqVn//ey7VlVVVeO1evfu3ey14EB169YtevXqlXQMWskRRxyRdAQAAAAAslAAAxyGfSVgR5WtWHy7TEXngTyurSgpKYni4uIoKSlp3Ok8Y8aMWLZsWVRXV0dZWVlUVla+4zHV1dUxZcqUmD59ehQXF0d5eXnU19dHVVVVrF27tnF39P/9vXn7tfYV6wdzrcLCwibXuvDCC1vsWnAwBg4cGAMHDkw6BgAAAAB0OApgAA7ZvmOdX3vttQMudWtqamLSpEmtnKzl1NTUREVFRRQXFzeWqGVlZbF8+fKYNGlSVFRUNHnMpEmTorCwMCoqKhqPVS4sLIyysrKoqKiImpqajMX426+1bwduWVlZrF+/Pmshu+9alZWVjTurCwsLY9KkSVFeXt7stWbMmJHxWvtKYQAAAAAA2h8FMACHrLCwMKqqqqKmpiaWLVt2QOsvvPDCdnW88L5ytaysLMrLyxvHly1b1uz9ecvKymLSpEnvKLyrq6tjxowZWV9/tms98MAD+71WbW1t4zHOEf841rmioqLZa1VVVR30tQAAAAAAaNsUwACHoaMfAR3xv7tN29Ou3oNVX18fxcXFUV1dHXfffXfjccv7U1tbG2VlZTFlypTGnbbr1q2LsrKyFr/WunXrory8PCfXAgAAAACg7VIAAxyGvXv3Jh2BHKipqYmampooKSmJu+66KyorK2P58uVRW1ub8XjlffatqaysjNra2sbjnQ/kWsXFxXHXXXdFRUVFrF+//oCvVVFREfX19Yd1rXXr1rWrXdoAAAAASRo+fHiUlpY2Gc/Pz08gDYACGOCw2AHcMezbTbtvd2xFRUWUl5fvd7fsXXfd1VikFhcXR01NTaxbt26/13r7fXsrKytjxowZ+73WLbfc8o7dvq15LQAAoGVt2rQp7rvvvnjrrbdyet3+/fvHpZdeGt26dcvpdduLhoaGpCMA7cScOXNizpw5SccAaKQABoD9yLSTdn+7ayMi4y7a/e2sPdRrZTrqubWuBQAAtIxXXnklPvOZz8TixYsTyzB79uy44YYbYurUqYllgAORn58fJ598ctIxaCWdO3dOOgJAqiiAAQ6DTwMDAAAtzUlDHcPOnTtj3Lhx8eyzz8aZZ54Zl156aZxwwgnRpUtu3q7btWtXrFmzJm6++ea48soro66uLmbPnp2Ta7cXeXl5qf3z2B5fV+fOnaNXr15JxwCAdkEBDAAAAAA5NnPmzHj22WfjyiuvjPnz5yeS4fzzz49LL700JkyYEFdddVWcf/75dlgCAKSAAhhIjby8vCgtLc04N2LEiFa7JgAAAByM2trauOOOO2LUqFGtWv6+9tprsW7dumhoaIi+fftm/Nl4yJAhce+998aZZ54Z119/fdx7772tlgcAgNxQAAOp0alTp6ipqUk6BgAAADTrkUceiYiID37wg612jauvvjrmzZv3jrFzzz037rrrrjj22GPfMT5u3LgYOHBgPPzww62WByDNNmzYEFu3bm0yPnbs2MjPz08gEdDRKYABAIAOoaCgIOtpISeeeGKO0wBk19DQ8P/Yu/f4Luu6f+DvDRgDZZsHmCgIqIgTiTmVe6G1ESq3UoqamooyNcxjwp2/LOlxC3Vjmt5KmRl4CG7CQ2qgeQiFGKFQmRxMxDwgioqIygRUBGG/P7hZcu/AadvFrj2ff7Xrcx1e13cx993r+/lcSUegga1cuTIiGu6/P+edd15MnDgxcnNz49///d+jY8eO8fjjj8cf//jH+PKXvxwLFiyInJycLY457LDD4oknnoiPPvrIc1YBttPo0aNj0qRJ1bYvXrw4unXrlkAioLlTAAMAUO9efvnlWLFiRdIxaCDdu3ePDh06JB1ju/Xs2dNqIQDsEjZs2BARES1atKj3c5eXl8fEiRPjkEMOidmzZ8cee+wRERG33HJLXHrppXH77bfHDTfcUG12cFZWVkRErFu3rt4zAQDQuDKTDgDQlPlkPgAAALuSzcs4jxw5sqr83eyGG26IiIjHHnus0XMBANB4FMAAAAAAkBKbV2E56KCDqo21a9cuDjjggHj11VdrPd4Hnf+lsrIyta9HWu8LANhEAQywEzIyMpKOAAAAAFU6deoUERGzZs2qNvbWW2/F4sWLY7/99mvsWAAANCLPAAZSo7KyMmbOnFnjWE5OThQVFTXINQEAAGBXUVZWFtddd12MGjUqjj322DjssMMiIuLjjz+O8847LyIiLrnkklqP90Hnf8nIyEjt65HW+wIANlEAA6mxcePG6NevX41jxcXFMWfOnHq/pjdMAAAA7Eq6d+8et9xySwwfPjyKi4vjyCOPjIiI119/Pd58880YMGBADBs2LOGUAAA0JAUwwE4wAxgAmo5Vq1bF3Llzaxzr2LFj9OjRo5ETAUDDGDZsWBQUFMQPfvCDqpWy8vPz48Ybb4yrrroq4XSwY9avXx/Lli1LOgYNJCsrK/bZZ5+kYwCkhgIYYCeYAQwATcfChQtrXS1k6NChMW7cuEZOBAANZ8CAATFgwID44IMP4t13342ePXsmHQl2yrp162Lp0qVJx6CBtG3bVgEMUI8UwAA7wQzg9Pvss89i7dq1ScdoNrKzs6N169ZJxwAAgNTYa6+9Yq+99trqfps/4Ox97pbS+nqk9b4AgE0UwABQh+XLl/uEcSPq3Llz7L///knHAABIlJWG0m/z9zgzM3Ob9l++fHmsWrUqunfv3pCxAABIiW37LRMAAACARmFmXvpt/h5v3Lhxq/u+/vrrUVRUFL169YonnniioaMBAJACCmAAAACAXYgZwOm3rTOAX3rppSguLo533nknsrKy4sQTT4yHHnqoMSICANCEKYABdsK2LtcFAACwrcwATr9tmQH8/PPPx5e//OV477334t57740///nPsccee8QZZ5wRDzzwQGNFBQCgCdJcAOwEf5gBAACgvj333HPxla98JdasWRO///3v41vf+lYUFhbGrFmzIjc3N84888y4++67k44JAMAuqmXSAQCaMgUwQM0OPvjgOPjgg5OOAQDQ5MyaNStOOOGEWLduXUyZMiUGDhxYNdazZ8+YNWtWlJaWxoUXXhifffZZXHLJJdt87q9//evx/PPPx/Tp06N79+5bjG1+f2sJ8i2l9fVI630BAJsogAF2wq78hmnBggW7dL7GUFFRkXQEAACAbTZ9+vSqwvexxx6L4447rto+PXv2jKeffjpKSkri0ksvjcWLF8eNN9641XMff/zx8dRTT0VExDHHHBMzZsyIQw89tGp88/tHH3TeUlpfj7TeFwCwiQIYYCfsym+YrrzyyqQjJK6kpGSnz5GdnR25ubn1kIZtkZ2dnXQEAABIxMMPPxynn356tGzZMh5//PEoLS2tdd8ePXrE7Nmzo2/fvnHTTTfFhg0b4uabb65x308//TS+/vWvx5/+9Kc46qijonfv3nHnnXfGMcccE08++WQceeSREWEGcG3S+nqk9b4AgE0UwABQhw4dOkSHDh2SjgEAQELy8vJq/GBhfn5+AmlIqwceeCC+9a1vRdu2bWPq1KnRt2/frR5zwAEHxOzZs+PYY4+NW265JdavXx+33nrrFvusWbMmBgwYELNnz46jjz46pk6dGrvttltkZ2fHL3/5yygtLY0nnngivvKVr5gBXIu0vh5pvS8AYBMFMAAAAEAtioqKory8vFGvaWZe+m3+HmdmZsZvfvObuOCCC2K33XaLJ598Mr785S9v83kOOOCA+Mtf/hL9+vWLX/7yl/HZZ5/FuHHjImJT+fu1r30tnn322fj6178ef/jDH6qOu/XWW6NTp07xgx/8IL761a/GtGnT6vcGAQBIVGbSAQCaMn+YAQAA6pv3Gc3H3XffHRdccEHk5eXFzJkzt6v83axDhw4xa9asOPzww+OOO+6Iiy66KFauXBn9+vWLZ599NoYMGbJF+bvZ1VdfXVUWH3vssfHcc89FxKZSmk0yMjJS+3qk9b4AgE3MAAYAAADYhViatfl49NFHIy8vL2bMmBGFhYU7fJ4999wzZsyYEQMGDIg77rgjHnzwwVi5cmVcccUV8Ytf/KLW44YOHRq5ublx5plnxtKlSyPC//++qLKyMrWvR1O8r6ysrOjcuXPSMWggWVlZSUcASBUFMAAAAMAupCkWM2yfzd/jvffeO8rLy6Nnz547fc7c3NyYPn16HHvssfGXv/wl/vM//zNGjRq11ePOOOOMyMvLiwEDBmyRjU3S+no0xftq1apV7L///knHAIAmwVofAAAAALsQS0Cn3+bv8S9+8Yt6KX8322233WLOnDnxt7/9bZvK382OP/74GDhw4BbZ2CStr0da7wsA2MQMYAAAAIBarFy5MhYsWFBte0FBQeTn5zfINZvizDy2z+bvcUMteXrUUUft8LH+/7eltL4eab0vAGATBTDATvCGCQAA0m3evHnRv3//atsnTpwYgwcPbpBrmpmXfpmZu96ifJvf37Zs6c+FX5TWf49pvS8AYJNd77dNAAAAgGbMB03TLzc3NyIiXn311YST/MvmLHvuuWfCSQAA2FkKYAAAAABoRMXFxRERMWPGjISTbLJ06dJ4+eWXY9CgQUlHAQCgHiiAAQAAAHYhlmZNv8LCwigtLY2pU6fGnXfemWiWTz/9NM4+++yIiLj22msTzQIAQP3wUA8AAAAAaGRjx46NwsLCGDp0aDz88MMxcODAOOiggxrtGbyrV6+OefPmxW233RbvvfdeXHfddVFYWNgo1wYAoGEpgAEAAACgkR188MExbdq0OPXUU+PRRx+NRx99NJEce++9d/zqV7+KSy65JJHr78oqKytT+0zutN4XALCJAhgAAAAAEtC3b994/fXX49FHH40XX3yxUUu5vfbaK/r27RtHHHFEo12zqcnIyEjtkuxpvS8AYBMFMAAAAMAuxMy85qVNmzZx+umnJx2DWqT132Na7wsA2CQz6QAAAAAAAAAA1A8FMAAAAAAAAEBKWAIaAAAAAABgBxUUFERJSUm17dnZ2QmkAVAAAwAAAAAA7LARI0bEiBEjko4BUMUS0AAAAAAAAAApoQAGAAAAAAAASAlLQAPsou65554YP3580jGAbXTmmWfGhRdemHQMAAAAAKCZUwAD7KL69u0bHTp0SDoGsI26du2adIRt9txzz8WaNWuSjgF1Wr16ddIRAAAAAJokBTDALqpr165NqlACmoYTTjghnn322Vi4cGHSUaBOl19+eWRkZCQdAwAAYKsWLVoUy5cvr7a9uLg4srOzE0gENHcKYACAZqRPnz7Rp0+fpGMAAABAaowePTomTZpUbfvixYujW7duCSQCmrvMpAMAAAAAAAAAUD8UwAAAAAAAAAApoQAGAAAAAAAASAkFMAAAAAAAAEBKtEw6AEB9ycjIiJKSkhrHDj300EZOAwAAANA8lJeXR2lpadIxoE4rVqyIn/3sZ0nHAGgUCmAgNTIzM6O8vDzpGAAAAADNRps2beKdd95JOgZskxYtWiQdAaBRKIABAIBmIScnp9bVQg4++OBGTgMAkB4tW/ozMwDsSvyXGQAAaBZ69uxptRAAAAAg9TKTDgAAAAAAAABA/VAAAwAAAAAAAKSEAhgAAAAAAAAgJTwDGEiNysrKmDlzZo1jOTk5UVRU1MiJAAAAAAAAGpcCGEiNjRs3Rr9+/WocKy4ujjlz5jRyIgAAAAAAgMalAAYAAJqFVatWxdy5c2sc69ixY/To0aOREwEAAADUPwUwAADQLCxcuLDW1UKGDh0a48aNa+REAAAAAPUvM+kAAAAAAAAAANQPBTAAAAAAAABASlgCGiCF7r777rjwwguTjgFbNWTIkBg/fnzSMZqVUaNGxciRI5OOAdtkw4YNkZnpM6tAsvLy8qKkpKTa9vz8/ATSAAAAbJ0CGACgmXn22WfjyCOPTDoG1KlPnz5JRwCIiIiioqIoLy9POgYAAMA283F6AAAAAAAAgJRQAAMAAAAAAACkhAIYAAAAAAAAICUUwAAAAAAAAAAp0TLpAAAAAAC7qpUrV8aCBQuqbS8oKIj8/PwEEgHsWiorK+ONN95IOgZsk/z8/GjTpk3SMQAanAIYAAAAoBbz5s2L/v37V9s+ceLEGDx4cAKJAHYta9eujYEDB8bpp5+edBSo04svvhhDhgyJgQMHJh0FoMEpgAEAAAAA2GE9e/aMkSNHJh0D6vTggw8mHQGg0XgGMAAAAAAAAEBKKIABAAAAAAAAUkIBDAAAAAAAAJASCmAAAAAAAACAlFAAAwAAAAAAAKREy6QDAFD/LrjggrjggguSjgEAAAAAADQyM4ABAAAAAAAAUkIBDAAAAAAAAJASloAGAAAAAADYQQUFBVFSUlJte3Z2dgJpABTAAAAAAAAAO2zEiBExYsSIpGMAVLEENAAAAAAAAEBKmAEMAEC9Gz16dEybNi3pGDSQa665Jo477rikYwAAAABQAwUwAAD17qWXXory8vKkY9BALrjggqQjAAAAAFALS0ADAAAAAAAApIQZwAAAAAAAADto0aJFsXz58mrbi4uLIzs7O4FEQHOnAAYAAAAAANhBo0ePjkmTJlXbvnjx4ujWrVsCiYDmzhLQAAAAAAAAACmhAAYAAAAAAABICUtAAwAAAACwS1uwYEEUFhYmHYMG0qtXr3j++eeTjgGQGmYAAwAAAAAAAKSEAhgAAAAAAAAgJRTAAAAAAAAAACmhAAYAAAAAAABICQUwAAAAAAAAQEoogAEAAAAAAABSQgEMsBMyMjKSjgA0A37WAAAAAADbqmXSAQCassrKyqQj1GjlypXx9ttvJx0DtiovLy86deqUdIxd3q76s6Yu11xzTVx44YVJx6CBFBQUJB0BAAAAgFoogIHUyMjIiJKSkhrHDj300EZOk6yPOq2mAAAgAElEQVR169bFRx99lHQM2KrWrVsnHYEGUlBQoCQEAAAAgAQogIHUyMzMjPLy8qRjAAAAAAAAJEYBDAAANAs5OTm1rhZy8MEHN3IaAAAAgIahAAYAAJqFnj17Wi0EIEHTpk2LtWvXJh0Dttn777+fdAQAgB2iAAYAAACgwU2fPj2mT5+edAzYLu3atUs6AgDAdlMAAwAAAOxCMjIyko5Qr0pKSmLGjBlJx4Ad0rJlOv98mrafMwDAltL5GwwAAABAPcjLy6vx+eH5+fkNds3KysoGO3cS2rdvH6WlpUnHAL6gKf6c6d27d5PMDQBJUAADqVFZWRkzZ86scSwnJyeKiooaOREAANDUFRUVeX44AADQpCiAgdTYuHFj9OvXr8ax4uLimDNnTiMnAgAAAAAAaFwKYAAAoFlYtWpVzJ07t8axjh07Ro8ePRo5EQAAAED9UwADAADNwsKFC2tdLWTo0KExbty4Rk4EAAAAUP8ykw4AAAAAAAAAQP0wAxgAAACgFitXrowFCxZU215QUBD5+fkJJAIAAKibAhgghfbcc8847LDDko4BW5WVlZV0BACAOs2bNy/69+9fbfvEiRNj8ODBCSQCAAComwIYIIVatWoVubm5SccAAAAAAAAamWcAAwAAAAAAAKSEAhgAAAAAAAAgJRTAAAAAAAAAACmhAAYAAAAAAABIiZZJBwAAoHEdddRRSUcAAAAAABqIAhgAoBm59tpr49prr006BgAAAADQQCwBDQAAAAAAAJASCmAAAAAAAACAlLAENEAKrV+/Pj755JOkY9DAsrKyok2bNknHAAAAAGjWCgoKoqSkpNr27OzsBNIAKIABUunDDz+MV199NekYNLAOHTpE9+7dk44BAAAA0KyNGDEiRowYkXQMgCoKYAAAAAAAdtjChQtj5MiRSceAOr344osxZMiQpGMANAoFMAAAAAAAO6R169Zx2223JR0Dtqq0tDR69eqVdAyARqEABgAAAABgh2RmZkZpaWnSMQCAL8hMOgAAAAAAAAAA9cMMYAAAAAAAgB20aNGiWL58ebXtxcXFkZ2dnUAioLlTAAMAAAAAAOyg0aNHx6RJk6ptX7x4cXTr1i2BREBzZwloAAAAAAAAgJRQAAMAAAAAAACkhAIYAAAAAAAAICUUwAAAAAAAAAApoQAGAAAAAAAASAkFMAAAAAAAAEBKtEw6AAD1LysrK3Jzc5OOQQNr06ZN0hFogjZu3BgbN25MOgZsk5YtvV0BmqeMjIykI9SrFStWxMKFC5OOATukZcuWccwxxyQdo96l7ecMALAlf1EBSKE99tgj9thjj6RjALugn/zkJ/HII49Eu3btko4CdZo7d25UVFREZqZFi4Dmp7KyMukI9WrmzJlx+umnJx0Ddki7du1i1apVSceod2n7OQMAbEkBDADQzIwdOzaOPPLIpGNAnfr06ZN0BAAAAIAmycfpAQAAAAAAAFJCAQwAAAAAAACQEgpgAAAAAAAAgJRQAAMAAAAAAACkRMukAwAAAAAA0DRt2LAhfv3rXycdA7bJwIEDo2vXrknHAGhwCmAAAAAAAHbIunXr4sEHH4xrr7026ShQp5kzZ8bChQsVwECzoAAGAAAAAGCHtW/fPkpLS5OOAXV6//33k44A0Gg8AxgAAAAAAAAgJcwABgAAAKhFXl5elJSUVNuen5+fQBoAAICtUwADqZGRkVHjH2YiIg499NBGTgMAAKRBUVFRlJeXJx0DAABgmymAgdTIzMz0hxkAAAAAAKBZUwADAADNQk5OTq2rhRx88MGNnAYAAACgYSiAAXZCRkZG0hFqddtttyUdAao544wzon379knHaHJ25Z810JT07NnTaiEAAABA6imAAXZCZWVl0hFqdccdd8SYMWOSjgFVxo8fH3379lUA74Bd+WcNAAAAALBrUQADpFReXl6UlpYmHQOqmHUHADRFK1eujAULFlTbXlBQEPn5+QkkAgAAqJsCGAAAAKAW8+bNi/79+1fbPnHixBg8eHACiQAAAOqmAAZSo7KyMmbOnFnjWE5OThQVFTVyIgAAAAAAgMalAAZSY+PGjdGvX78ax4qLi2POnDmNnAgAAAAAAKBxKYABAIBmYdWqVTF37twaxzp27Bg9evRo5EQAAAAA9U8BDAAANAsLFy6sdbWQoUOHxrhx4xo5EUDNMjIyko5Qr0pKSmLGjBlJx4Ad0rJlOv98mrafMwDAltL5GwwAAABAE1VZWZl0hHrVvn37KC0tTToG8AVp+zkDAGwpM+kAAAAAAAAAANQPBTAAAAAAAABASiiAAQAAAAAAAFJCAQwAAAAAAACQEi2TDgAAAADbY8OGDbF06dJo0aJFdO7cOek42+2DDz6IPfbYIzIzfSYbACANCgoKoqSkpNr27OzsBNIAKIABAACahffff7/G7S1btoy8vLxGTrNzli1bFt26dYv8/Px49913k46zXUaOHBmjRo2Ko48+Op5++umk4wAAUA9GjBgRI0aMSDoGQBUFMAAAQMp9/vnn0b59+1rHW7duHb169Ypzzz03Lr300mjZ0lvFhjJjxoyIiJgzZ06sXbvWrBAAAADqnXf1AAAAzUhpaWm0bt266uvPPvssFi9eHH//+9/j73//e/z2t7+NadOmRU5OToIpm6YLL7wwXnjhhZg9e3a0aNGixn1uuOGGuOmmm+KEE05Q/gIAANAgFMAAANS73//+9/H8888nHYMGcuqpp8aXvvSlpGOwgyZOnBidOnWqtn327NlxzjnnxLPPPhuXXXZZTJw4MYF0Tdvdd98dERGVlZW17lNcXBwPPvhgY0UCAACgGVIAAwBQ7yZPnhy//e1vk45BAznwwAMVwCnUt2/fGDt2bAwYMCDuu+++uOmmmyI/Pz/pWAAAAMB2UgADAAAQERHHHntstG7dOj777LOYO3dunHDCCVVjw4cPjxUrVsRdd90VH3zwQfzyl7+MefPmRcuWLaNfv37xH//xH1ucq7KyMp544omYOHFivPTSS1FRURH77rtv9O3bNy666KLo3r17nVnmzZsXv/rVr+K5556LDz/8MDp16hQnnXRSXHHFFXUe9z//8z/x5JNPxrnnnhsDBgyocZ/bb789nnnmmfjOd74TX/nKV2rc55VXXomxY8fG7Nmz45133ok999wzDjrooCgrK4sTTjghMjIyIiJi5syZcfvtt29x7DnnnFM1HhHx7W9/O4499tiIiJg1a1aMHTs2jj766LjkkktqvPayZcvizjvvjOnTp8fSpUujbdu2ccABB8RZZ50Vp512WrRq1arG4774Pdq4cWPcdtttMXny5Hj77bejbdu2ccQRR8SwYcPiiCOOqPM1BABg+yxatCiWL19ebXtxcbHHfgCJUAADAAAQERGZmZmRn58fb775ZnzwwQdbjE2ePDneeOONuOaaa+K4446Ld955p2ps9erVWxTAq1atisGDB8cf/vCHiIjIysqK3XbbLd54442YPXt2/PznP49bbrklLrvsshpzjBkzJr73ve/Fxo0bIyMjI/Ly8uLZZ5+NZ555JsaPHx/33HNPrffwt7/9LSZNmhRHHnlkrQXwM888E5MmTYpjjz22xgL49ttvjyuvvDLWr18fERG5ubmxdOnSmDdvXjzwwAPxrW99KyZMmBBZWVnx+uuvx/3337/F8b/73e+2+Lq0tLSqAH7ttddi0qRJERE1FsCPPPJIDB48OFavXl117WXLlsULL7wQjzzySPTp0yceeuihGpfx3vw9+tnPfhbf+MY3Yu7cuZGXlxe77757vPLKK7Fo0aK4//7749FHH43jjz++1tcQAIDtM3r06Krf8b5o8eLF0a1btwQSAc1dZtIBAAAA2DWsX7++qtjdZ599atzn29/+duyzzz7xxBNPxKuvvhrTpk2LH//4x1vsc/7558cf/vCHOOSQQ2Lq1KnxySefxIcffhgffvhh3HzzzZGRkRGXX355TJ48udr5p06dGsOHD4+IiGuvvTbee++9+PDDD2PNmjXx8MMPx8cffxzf+MY36vnO/+XBBx+MSy+9NCIifvrTn8aHH34YFRUVsXbt2njooYdin332ifvuuy/+67/+KyIiysrKorKycovn/q5fv75qW2VlZVx88cXbdO25c+fGaaedFmvWrInvf//7sWzZsqioqIiPP/44/vrXv8bRRx8df/vb3+Lkk0+Ozz//vNbznH322bF+/fp4+umnY+XKlbF06dJYsWJFnHPOObF+/foYNmzYTrxCAAAA7OrMAAYAACAiIu677774/PPPo23bttGnT58a93nzzTdj4cKFkZubGxGbngn9RU899VT8/ve/j/bt28fMmTOjQ4cOVWN5eXkxfPjw2HvvveO8886Lyy67LE466aRo0aJF1T5XXXVVRET85Cc/iWuuuaZqe6tWreKkk06KL33pS9G7d+96u+cvWrt2bdWs3DvvvDPOO++8La5/6qmnRkFBQZSUlMQhhxxS79e/4oor4vPPP4///M//jFGjRlVtz8jIiD59+sS0adPiiCOOiLlz58Ydd9xR6xLS//znP+OFF16Ivfbaq2pbXl5ejBs3LiZPnhyLFi2KJUuWRNeuXev9HgAAAEieGcAAAADN3Jo1a+LOO++M7373uxERcdlll0VOTk6N+1500UVV5W9N7r333ojYtLzxF8vfLxo8eHAccMABsWzZsigvL6/a/vLLL8cLL7wQu+22W62zVLt27Rrf+c53tuW2ttujjz4a77//fvTq1WuL8veLCgoK4q233oqzzz67Xq/95ptvxuzZs6Nt27bx//7f/6txn+zs7Lj66qsjIupcBvviiy/eovzdrG3btvGlL30pIiKWLFmy86EBAADYJZkBDAAA0IwcddRRW8y4XbduXaxYsaLq67POOiuuu+66Wo8vLi6u8/yzZ8+OiE3Pva1NRkZGlJSUxOLFi+Ppp5+O/v37R0TEs88+GxERRx55ZLRt27bW44877ri48cYb68yxIzaX0SeeeGKd+2VlZdX7tTe/bkceeWTsvvvute63+XWdM2dObNy4MTIzq3+u+5hjjqn1+M3l/ccff7wTaQGg8S1YsCAKCwuTjkED6dWrVzz//PNJxwBIDQUwAABAM/LZZ59tURq2bNkyevXqFb17945zzz03jj/++DqP33fffescf/fddyMionPnznXu16lTpy32j4h47733thirzf7771/n+I56++23IyKiS5cuDXL+umzv67Zhw4ZYsWJF5OfnV9untuc3f9EXn1kMAABAuiiAAQAAmpHnn39+qwVrXbKzs+scX7t2bURsKpbr0qpVqy32j9hUTm/LsTs7A3fDhg01bt+cpSFm+G7Ntr5umZmZ0aJFi9iwYcMWr90XtW7dut7zAQAA0HR4BjAAAAD1ZvNzfz/88MM69/vggw8iIraYwbr33ntv07Hvv//+zkSMjz76qMbtm2fObp6J3Ji29XWrqKioKrBrmv0LAAAAZgADAABQbw455JBYunRpzJ07N4qKimrdb968eRER0aNHj6pt3bp1i4iI+fPn13mNzc8Krsnm5xuvX7++1n0WLlxY4/ZevXpFRMSsWbPihz/8Ya3Hv/3227HffvvVmXF7HXLIIRHxr9elNpvH999//63OxoZdxfr16+OTTz5JOgbskIyMjMjJyUk6BgDAdlEAAwAAUG8GDRoUTz31VNx9991x4YUXRkZGRrV9/vnPf8bTTz8dLVu2jJNOOqlq+zHHHBO77757LF26NKZPnx79+/evduznn38eY8eOrfX6e+65Z0REvPbaazWOz5o1K958880ax84444y46qqr4qmnnoqFCxdGz549q+2zevXqKCwsjNLS0njggQe2GMvOzo61a9fGmjVrIi8vr9aMNSkuLo599tkn3nrrrZg6dWoMGDCgxv3uuuuuiIg47bTTtuv8kKRVq1bFSy+9lHQM2CEtWrSI4uLipGMAAGwXS0ADAABQb84999zo0qVLzJkzJ6666qpqM3GXLl0aZ555ZmzcuDEuvfTS2GuvvarGWrduHUOHDo2IiAsvvDBefvnlLY799NNP46KLLop//OMftV7/3/7t3yIi4p577oklS5ZsMfbGG2/EhRdeGLm5uTUe26lTp7jkkkvi888/j29+85vx+uuvbzG+evXqOOOMM+L999+Pgw46qNrxBxxwQERETJ06tWrb2rVr4+OPP64172aZmZlxzTXXRMSme3/++ee3GK+srIxbb701Jk2aFO3atYsrr7xyq+cEAACgeTIDGIBma8mSJTFhwoQoLy/fqfMUFhbGySefHKWlpfWSCwCasnbt2sU999wTAwcOjJtvvjkeeOCB+NrXvha5ubmxZMmSeOqpp+LTTz+No48+On76059WO37UqFHx1FNPxQsvvBC9evWKY489Ng488MD46KOP4sknn4zVq1fH5MmTY9CgQTVe/7jjjovevXvHggULonfv3nHKKafEvvvuG4sXL45HHnkk+vfvH6eeemrccMMNNR5/4403xgsvvBB//vOfo0ePHnH88cdHt27d4r333oupU6fGRx99FEcddVSNS0SfffbZ8aMf/SiGDBkSjz76aGRlZcXUqVNjyJAhMXr06K2+dpdffnk888wzcf/990dRUVH069cvDjnkkPjss89i1qxZ8dJLL0Xr1q3jrrvuii5dumz1fAAAADRPCmAAmqX58+dHaWlplJWVxZVXXrndyzR+UXl5eZSVlcXIkSOjrKys/kJCE3bKKafEgQcemHQMGkjv3r2TjsAurm/fvvHss8/GNddcEw8//HBMmDChaqxjx45x9dVXxzXXXBOtWrWqdmy7du3i6aefjuHDh8c999wTjz/+eERsegZjv3794tZbb63zWYwtWrSIxx57LM4///x46qmnqq7dqlWrOO+88+LWW2+NUaNG1Xp827ZtY/r06XH99dfH7bffHo899ljV2G677RbDhg2La6+9tsYMV111VSxdujTuuOOO+O1vfxsRm2Y113SfNcnIyIj77rsvvvKVr8TPf/7zmDZtWkybNi0iNs0QHjBgQPz4xz+OPn36bNP5AAAAaJ4UwAA0S6ecckqMHz++1tlDddm8nGTXrl0jIqqK5M3PA9y8HepLTc/P3NWdeuqpceqppyYdA/hfLVu2jMrKyp06x/9dTnlrDjrooPjd734Xa9asiSVLlkRFRUXsu+++0aVLl2jRokWdx+bm5sbdd98dP//5z+OVV16JdevWRbdu3SI/P79qn7ruZ7/99osnn3wyli9fHq+++mq0atUqunfvHnvssUdERFx//fVx/fXX13p8y5Yt40c/+lH88Ic/jCVLlsSyZcuiQ4cO0aVLl2jdunWtx7Vu3Tp+/etfx/XXXx+vvvpqZGVlRffu3aNNmzZV+5SVlW31A2OXXXZZXHbZZfHmm2/GW2+9FW3atImuXbtW5a/NtnyP/vjHP251HwAAAJo2BTAAzU5FRUUsWbJku8vfioqKOOWUU2LevHkREXH44YfH5MmTIy8vL7p27RqFhYUxf/58BTAAfMHuu+8ehx122A4d265duygqKtrha+fn529RGm+vFi1axIEHHrjdKxrk5eXFkUceucPX3Wz//feP/ffff6fPAwAAQPOSmXQAAGhs8+fP36HjRo4cGV26dImKioqoqKiILl26xMiRI+vl3AAAAAAAUB8UwACwjebPn7/Fko1lZWUKXwAAAAAAdikKYADYRl27do0JEyZUfT1hwoQoLCxMMBEAAAAAAGzJM4ABYBuNGTMmBg0aFHvssUdERPTu3TumTJmScCoAABpSXl5elJSUVNu+M8+XBgAAaEgKYADYRnl5eVFeXh5LliyJiE0zggEASLeioqIoLy9POgZAs9e7d++orKxMOgYANAkKYAD4goqKiqioqKiz3FX8AgAAAACwq/IMYAD4XxUVFdGvX784/PDDLe0MAAAAAECTpAAGgPhX+du7d++YPHlylJWVxfjx45OOBQAAAAAA28US0AA0e18sfzeXvuXl5VFaWhoREWVlZTUeM3z48LjyyiujsLCw8cICAEATk5OTE4cddljSMWCHZGRkJB0BAGC7KYABaNZqKn8jIgoLC2stgTcf06VLlygtLY0xY8bUWBIDAND0rVy5MhYsWFBte0FBQeTn5yeQqOlp1apV5ObmJh0DAACaDQUwAM3W/Pnz45RTTomTTz45xowZU228phL4/xbG8+fPrxoHACB95s2bF/3796+2feLEiTF48OAEEgEAANRNAQykRkZGRpSUlNQ4duihhzZyGpqCfv36xS233FLn7N0vlsAfffRRjB8/fovZwl8cz8jIUAYDAAAAAJAoBTCQGpmZmVFeXp50DJqQrZW/m32x5B00aNAWS0X/33EAAAAAAEiSAhiAZmt7nttbWFgYFRUVdY4XFhbWQyoAGkpOTk6tq4UcfPDBjZwGkjFlypQYPnx4FBYWxrXXXuv3FwAAgBRSAAPQ7HTt2rVJnhuAndOzZ0+rhdDsDRs2LN54441YsmRJlJeXb/OKKAAAADQdmUkHAIDG1rVr18jNzY358+fX2zkrKipiwYIFloEGAHZZFRUV8cYbb2zx9fnnnx/nn39+nSudAAAA0LSYAQxAszRmzJg45ZRTYsyYMZGXl7fT5xs2bFgMGTLEDGD4X0uXLo2PPvoo6Rg0kE6dOtXLz06gcdX273b8+PExf/78+M1vfmNJaAAAgBRQAAPQLJWVlUVeXl7ccsstMX/+/J0qqkpKSmLIkCExbNiwekwITdunn36qAE6xDh06JB0BqGfz58+Pfv36WRIaAAAgBRTAQGpUVlbGzJkzaxzLycmJoqKiRk7Erm7QoEExaNCgpGMAAOwSNi8JPXPmzLjlllvM9AcAAGiiFMBAamzcuDH69etX41hxcXHMmTOnkRMBADSM9957L84888ykY5BSm5eEnjFjhhIYAACgCVIAAwAAzcKqVati7ty5NY517NgxevTo0ciJdtxnn30W5eXlSccgxebPnx+nnHJKzJgxI+koAAC7vIKCgigpKam2PTs7O4E0AApgAACgmVi4cGGtq4UMHTo0xo0b18iJYNe2cuXKpCMAADQJI0aMiBEjRiQdA6CKAhgAAACoZuTIkUlHICXWr18fn3zySdIxYIdkZGRETk5O0jGIiA0bNsSaNWuSjkEDadGiRey+++5JxwBIDQUwAABAE9O5c2dL87JDapsF/0W5ubkxZcqUKC0tbfhANAurVq2Kl156KekYsENatGgRxcXFSccgItauXRsvvPBC0jFoIG3bto3DDz886RgAqaEABgAAaIKUczSEkpKSmDJlSuTl5SUdBQAAgB2UmXQAAAAAIHnXXnttlJeXK38BAACaODOAAQAAoBmz5DMAwM5ZtGhRLF++vNr24uLiyM7OTiAR0NwpgAEAAKCZsuQzAMDOGz16dEyaNKna9sWLF0e3bt0SSAQ0d5aABgAAgGbiyiuvrPrflnwGAABIJzOAAQAAoJkYM2ZMlJWVRV5eXnTt2jXpOAAAADQABTAAAPWuc+fOkZ+fn3QMGkjbtm2TjgDshMLCwqQjAAAA0IAUwAAA1Ls2bdpEmzZtko4BAAAAAM2OZwADAAAAAAAApIQCGAAAAAAAACAlFMAAAAAAAAAAKaEABgAAAAAAAEiJlkkHAAAgfT799NNYt25d0jES07Zt22jVqlXSMQAAIDVatGgRubm5SceggbRu3TrpCACpogAGAKDeLV26NFasWJF0jMR07949OnTokHQMANgl7LXXXnH00UcnHQNo4rKzs+Owww5LOgYANAmWgAYAAAAAAABICQUwAAAAAAAAQEoogAEAAAAAAABSQgEMAAAAAAAAkBIKYAAAAAAAAICUaJl0AAAAAAAAqMv69etj2bJlScdITFZWVuyzzz5JxwCgiVAAAwAApFx5eXmUlpYmHQMAYIetW7culi5dmnSMxLRt21YBDMA2UwADAACk1Pz58+OUU06JJUuWRGFhYcyYMSPy8vKSjgVNSl5eXpSUlFTbnp+fn0AaAACArVMAAwAApNCYMWNi+PDhVV/Pnz8/pkyZEmVlZcmFgiaoqKgoysvLk44BAACwzRTAAAAAKVJRURHnn39+TJkypdrYkiVLGj8QAAAA0KgUwAApNXPmzMjIyEg6Bmzh5JNPTjoCQKp9cclnAAAAoHlSAAOkVGVlZdIRAIBG9H+XfAYAAACaJwUwAAD1rk2bNpGbm5t0jMRkZWUlHYFmpK4ln/+vJUuWeJYptTrwwAOjc+fOSccAAABgJymAAQCod507d1YiQCOoqKiIww8/fJuXfJ4wYUJMmDChYUPRZN14441x1VVXJR1jl7Ny5cpYsGBBte0FBQWRn5+fQCIAAIC6KYABAACaqPHjx3veLzSwefPmRf/+/attnzhxYgwePDiBRAAAAHXLTDoAAAAAAAAAAPXDDGAAAIAmatiwYTF//vxtXta5a9eu0bVr14YNRZNl6X4AAIB0UAADAAA0YePHj4/S0tI4//zzt7rvkCFDYuTIkQ0fCgAAAEiMJaABAACauLKyspg3b1506dIl6SgAAABAwswABgAASIHCwsKYP39+lJWVxcMPP5x0HACAepWVldWsH1eQlZWVdAQAmhAFMAAAQErk5eXFlClTYsyYMTF8+PCk4wAA1JtWrVrF/vvvn3QMAGgSFMAAKTVq1KikI5AyXbp0ibKysqRjALANhg0bFqWlpTFo0KB44403qrYPGjQowVQAAABAY1AAA6mRkZERJSUlNY4deuihjZwmeSNHjkw6AilTUlKiAAZoQjYvCT1s2LCYMGFCDBkyJAoLC5OOBQAAADQwBTCQGpmZmVFeXp50DACAXUZeXl6MHz8+xo8fn3QUAAAAoJEogAEAgGYhJyen1tVCDj744EZOAwAApEVBQUGN7zWys7MTSAOgAAYAAJqJnhhXC14AACAASURBVD17Wi0EAACodyNGjIgRI0YkHQOgSmbSAQAAAAAAAACoHwpgAAAAAAAAgJRQAAMAAAAAAACkhGcAA6lRWVkZM2fOrHEsJycnioqKGjkRAAAAAABA41IAA6mxcePG6NevX41jxcXFMWfOnEZOBAAAAACk3aJFi2L58uXVthcXF0d2dnYCiYDmTgEMAAA0C6tWrYq5c+fWONaxY8fo0aNHIycCAADSYPTo0TFp0qRq2xcvXhzdunVLIBHQ3CmAAQCAZmHhwoW1rhYydOjQGDduXCMnAgAAAKh/mUkHAAAAAAAAAKB+mAEMkFIzZsxIOgIpk5eXl3QEAEjcBx98EKtXr4699tor2rVrl3Sc7bJu3br49NNPIzc3N+koAAAANCAFMEBKlZaWJh0BAKjBJ598Ep988klEROy5556RmVn3wkwfffRRrF+/PnJzc6NVq1aNEZE6XH311XHXXXfF7bffHhdffHHScbbZu+++G4WFhfHhhx/Gww8/HCeccELSkQAAAGggloAGAABoRNddd120b98+2rdvHzfddNNW9x8wYEC0b98+pk+f3gjpSKtFixbF8uXLY/369fH0008nHQcAAIAGpAAGAABIyMiRI+O1115LOgZN3M033xxf+9rXYs6cObXu89WvfjW+//3vx7nnnhuXX355I6YDAACgsVkCGgAAICGffvppfOc734lp06YlHYUm7JFHHomZM2fGxx9/XOs+LVq0iBtuuKERUwEAAJAUBTAAQDPywAMPxIQJEyI7OzvpKFCre++9N+kIjeLUU0+Nv/zlLzF9+vQYP358lJWVJR0JAAAASAEFMABAM3L88cdH375947DDDks6CtSqa9euSUdoFJ07d46zzjorTj/99Pje974XJ554YnTo0GGHzrVs2bK48847Y/r06bF06dJo27ZtHHDAAXHWWWfFaaedFq1atarxuOHDh8eKFSvirrvuio0bN8Ztt90WkydPjrfffjvatm0bRxxxRAwbNiyOOOKIHb7PcePGxZ///Of49re/HaWlpfGnP/0pxo4dG//4xz9i/fr1VTnPOeecGnPOmjUrxo4dGwMHDoyzzjorJk+eHA888EC899570blz5/j+978fBQUFWxyzYMGCuOOOO+K5556LZcuWxd577x2HHXZYXHDBBfHVr361zryffPJJTJgwIR566KFYsmRJZGVlRVFRUVx++eVRXFxc63Fr1qyJiy++OHbbbbcYO3ZsjfssX748vve970X79u3jlltuqXGf9evXx4MPPhj33ntvvPbaa7Fu3brYb7/9ol+/fnHRRRdFx44dIyJixYoVccUVV0RExIsvvhgREaNHj44777yz6lx9+/aN7373u1Vfb/5+//d//3fk5+dXu3ZlZWU88cQTMXHixHjppZeioqIi9t133+jbt29cdNFF0b179xozb/4eX3XVVVFYWBi/+93v4je/+U288sorERHRo0ePOP/88+Ob3/xmra8fAAAA9UcBDADQjOTm5kbXrl3jkEMOSToKEBHf/OY348QTT4zHH388hg0bFvfcc892n+ORRx6JwYMHx+rVqyNi07/zZcuWxQsvvBCPPPJI9OnTJx566KHo1KlTtWMnT54cb7zxRvzsZz+Lb3zjGzF37tzIy8uL3XffPV555ZVYtGhR3H///fHoo4/G8ccfv0P3OHv27Jg0aVKUlpbGtGnTYvTo0RERkZeXF6tXr45XX301nnzyyZgwYUJMmTIlcnNztzj+tddei0mTJsU+++wTCxcurDp+syFDhlQVwJWVlTFq1Kj48Y9/HJWVlZGZmRl5eXnx9ttvx3PPPRcTJkyICy64IH71q19F69atq2V96623YuDAgfH8889HRER2dna0bt06Fi1aFPfee2+MGTOm1vtcu3ZtTJo0KXJzc2stgFevXh2TJk2KLl261FgAv/POO3HqqafGX//614iI/8/e/UfXXdf3A38l6Y+UluRiwVDA9hakJS3aa1WI/DA31g2O7Eg65i/sRrrRbYDaFKeCmZKqONyUporCqtDLsOJPGnDzjANbb+VHGWibOnpamLQBdFJAelu0QH/l+4en+bZL0p/J/SQ3j8c5PTTvz/3c97OXnrY3z/t+v2P06NExcuTI+OUvfxkrV66MxYsXx1133RXZbDZ+//vfx/e+97397s/n8z2ec98CeO//79bW1h4F8LZt22LOnDnx4x//OCIiRo0aFWPHjo2nn346Hn744Vi8eHEsWrQorrrqqh5z7P1//MEPfjC+/vWvx7e+9a0YM2ZMHH/88fHb3/42nnrqqfjJT34S1113XbS2tvb5GgIAANA/FMAAJeqZZ55JOsKwMnHixKQjADBEff3rX4/p06fHnXfeGXPmzIn3vOc9h3zv6tWr45JLLondu3fHJz/5yViwYEGceOKJ0dXVFY899lhcffXV8dBDD8XFF18c//Vf/xUjRvT+FvDSSy+NnTt3xoMPPhjnnntuREQUCoX4yEc+EsuWLYvm5ubuVaZH6uabb47HH388vvKVr8Tll18eVVVV8corr8Ty5cvjYx/7WOTz+ViwYEHcdtttvd7/wAMPxNq1a+O6666L973vfVFeXh4PPvhgnH/++d2P+drXvhYLFy6MqqqquPHGG+MDH/hAjBs3Lnbs2BH/9m//Fh/96Efjtttui7Fjx8ZXv/rV/Z6/q6srPvCBD8QvfvGLeNOb3hQ33XRTnHfeeVFeXh6/+tWv4gtf+EI0Nzf3unK2P+zcuTP+5E/+JNasWRNnn312LFq0KOrq6qKsrCw6Ozvj85//fNx2221xySWXxBNPPBHpdDq6uroiIiKbzcbKlSvjvvvui3e/+91HNP/cuXPjxz/+cZxxxhmxePHimDVrVlRUVEShUIilS5fGNddcEx/5yEfipJNOitmzZ/f6HF/+8pfjF7/4RXznO9+JSy65JEaNGhU7d+6Mm2++OebPnx9f+MIXYt68eXHyyScf8esEAADAwSmAAUrUs88+m3SEYeXkk0+OioqKpGMAMASl0+n47Gc/G9dcc01cccUVsW7duhg3btwh3fvRj340du3aFZ/97Gdj4cKF3eNlZWVx1llnxf333x9vfetbY/Xq1fHNb34zrrjiil6f54knnojHH388xo8f3z2WSqViyZIlsXz58li/fn10dnYe1fbcq1evjm9/+9vx4Q9/uHtszJgxcemll8app54a5557buRyubj22mt73Wr40UcfjS9/+cvx8Y9/vHts362fC4VCXHvttVFWVhbLly+Pd73rXd3XRo0aFbNnz47p06fHjBkz4qabboq/+Zu/ienTp3c/5q677oqHH344ampqIp/Px+te97rua6ecckrccsstMXr06B7FcX/56le/GmvWrIlp06bFihUrYsyYMd3X0ul03HrrrbFz58544YUXuovf/nLffffFXXfdFSeccEKsXLlyv63IU6lULFiwII4//vj4i7/4i7jqqqvive99b6//7vnpT38aDzzwQPeHCCIiRo4cGR/72Mfirrvu6i6pnXcNAAAwsMqTDgAAADDcXX311XHmmWfGM888E3//939/SPc888wz8fDDD8cxxxwTn/jEJ3p9TGVlZXzqU5+KiDjg9tJ/+7d/u1/5u9cxxxwTb37zmyMiorOzs3v8ySefjMbGxl5/zJ8/v9c5amtr9yt/91VXVxezZs2Krq6uuOeee3p9zDHHHBNXXnlln7+Ge+65J7Zv3x7nn3/+fuXvvqZMmRIf+tCHoqurK7773e/ud+2HP/xhRERceeWV+5W/+7ruuut63Tq6P+RyuYiI+PznP79f+buvW2+9NX7yk5/ECSec0K9z33nnnRERccUVV/R5DvWcOXPi1FNPjd/85je9bjUdEVFfX79f+buvd7zjHRGx/+8jAAAABoYVwAAAAAkbOXJk/PM//3Ocd9558bWvfS0uvfTSOOussw54z8MPPxwREW9729sOuGI4m81GRMSqVatiz549UV7e83PA5513Xp/37z2T9/e//3332EsvvRR33313r4/fd1Xtvi688MI+59ib87777os1a9b0en3GjBl9FqMR///12PvrPdA8S5cujQcffHC/8Z/97GcREfHOd76zz3tf97rXxVvf+tbuufrLiy++GI8//nhUVFTEBRdc0OfjRo4c2a/z7nUor11ZWVnU19fHxo0b48EHH4xZs2b1eMzh/j4CoDQ8//zz8fzzz8d//Md/JB0F+tTXh9wASpUCGAAAYBA455xzYt68ebFkyZK4/PLL4+c///kBC7/nnnsuIiLe8IY3HPB5TznllIiI2L17d7zwwgu9nmF74oknHjTfvtsOv+Utb4lNmzb1+rhRo0b1On6oOV944YVer5900kkHvP9wX4+9j9/r+eef3+96XyZOnNjvBfCvf/3riIgYP358jB07tl+f+1Ac7Wu31+H+PgKgNDzxxBOxYcOGuOGGG5KOAn06//zzY9q0aUnHACgaBTAAAMAgccMNN0R7e3v893//d/zTP/1TfPrTn+7zsa+++mpERIwYceC3deXl5VFRURG7d+/uvuf/OtxtjUePHn3Y5wEfbI69ZfeOHTt6vV5ZWXnA+w/19dg7z/99LV577bVDur+vgvtQ7N69u9fxvVmO5rmPxtG+dnsN1PbYAAxu559/frzzne+M73//+0lHgQPae+QHwHDgDGAAAIBB4rjjjosbb7wxIv5wFuyTTz7Z52P3bmP30ksvHfA5C4VCd/HY2+rfYulrZe9ev/3tbyMijvh820N9PfbO839fi+OPP/6Q7n/xxRePKF9ExNatW3sd37ty9sUXX0xkhezRvnYAAAAMLgpgAACAQeTDH/5wvPvd745XX301Lr/88igUCr0+7owzzoiI6PPM3L32Xp84ceJBV9EOpFWrVh3w+t6cb3zjG4/o+fe+HqtXrz6keaZOnbrf+OTJkyMioqOjo8979+zZEz//+c97vVZRURERETt37uzz/nXr1vU6fvLJJ8dxxx0Xr776ajz22GN93v/qq692l7D96Whfu1KXSqWivr6+xw9FOAAAMFgpgAEAAAaZb3zjGzF69Oh44IEH4oknnuj1MXV1dXHiiSfGr371q7j33nv7fK5bb701IiIuueSSAcl6qP7zP/+zzxXNhUIhli9fHhER733ve4/o+RsbGyMi4p577ulztfFrr70W3/72tyOi5+tx4YUXRkTE0qVL+5zjRz/6UWzevLnXa1VVVTFixIjYvn17n2fkLlu2rNfxESNGdOdpa2vrc/5FixbF6aefHg899NB+42PGjImIiN/97nd93nsge1+72267rc8VyE888UQ8+OCDMWLEiCP+fzRUzZw5M/L5fI8ff/RHf5R0NAAAgF4pgAEAAAaZ008//YDn/0b84WzfvY/5q7/6q/jFL36x3/Wurq742te+FsuWLYtjjz025s+fP2B5D8XOnTvj/e9/f/z617/eb3zbtm3x4Q9/OLZs2RLveMc74uyzzz6i5582bVr86Z/+abz88svx/ve/v8dK2e3bt8fll18eGzdujJkzZ8Z73vOe/a43NTXFuHHj4sEHH4zPfOYzsWfPnv2uP/TQQ3HFFVdEWVlZr/NXVFTEW9/61oiI+Id/+If9rnV1dcUNN9wQP/vZz/rMf+2118a4cePizjvvjC996Us9ith//dd/jc997nOxY8eO7hW7e5166qkRET0+CHCwLZ33+vM///OYNGlSrFq1Kv7u7/6uxyrmZ599Nj7wgQ/Enj174sorr4zx48cf0vMCAACQjBFJBwAAAKCna665Jr7zne/0uQI4IuIjH/lIPPTQQ/G9730vZs6cGQ0NDXHGGWfEa6+9Fg888EBs2LAhRo8eHbfeemtMmjSpiOl7uuqqq+J73/tevPGNb4wLLrggJk6cGM8//3zcd9998dJLL8UJJ5wQt956a58F66G45ZZb4sknn4x8Ph+TJ0+OP/7jP45TTjklXnzxxbjvvvvi+eefj5NOOim+/e1vx4gR+78dPvnkk2Px4sVx+eWXxxe+8IW48847I5vNxpgxY+Lxxx+PlStXxgc/+MEYM2ZM3Hbbbb3O/4lPfCL+7M/+LL761a/Go48+Guecc07s2bMn7r///tiwYUPcd9990dDQ0Ou9p556auRyuZgzZ05cc8018a1vfSvOP//8GDlyZHR0dMSjjz4a5eXl8S//8i89CtgPfehD8Y1vfCNuueWW2LRpU0yePDkeeeSROOaYY3qsFu7NscceG9/5znfioosuihtvvDF+8IMfxLve9a6orq6Ozs7OuO++++KVV16Jc889t0e5DQAAwOCjAAYAABiERo0aFbfcckufhWFERFlZWXz3u9+N888/PxYvXhz3339/3H///RHxhxXCF1xwQXzuc5+Ls846q1ix+5TJZOKqq66Kq666Ku65557uFa4VFRXR2NgYN954Y/c5vEfqhBNOiFWrVsV1110XuVwufvSjH3VfGzt2bMydOze++MUvxoknntjr/X/5l38Zr3vd6+Laa6+NDRs2xFNPPdX9vF/84hfjk5/8ZPz1X/91n/NfcsklcfPNN0dLS0s88sgj8cgjj0RExGmnnRb//u//HnV1dQfMf8kll0Q6nY7PfOYzce+998Yvf/nL7mtve9vb4vOf/3z3VtX7Ou+88+Kmm26Ka6+9dr9VwBdddFHs3LkzRo4cecB5IyLOOeeceOyxx+LTn/503H333XH77bd3X5swYUJ86lOfik9/+tOH9FwAAAAkq6yrrwN+AIaY3bt391jJsVddXV2sWrWqX+cbOXJkvOlNb4rVq1f36/P2l0NZ7UH/qauri4qKiqRjUKLOPvvsePTRR/s8l/FwLFy4MC666KJ429ve1g/JYOCcddZZ8cgjj0R5ef+dWrNq1ao455xzer02b968WLJkSb/NlZRnnnkmfvWrX8WYMWMinU7Hcccdl3SkaGpqittvvz2++c1vxuWXXx4REc8//3w89dRTMXLkyDjttNMGJOfOnTujs7MzNm/eHOPHj490Ot19Vu7BdHV1RWdnZ/z617+O4447LqZMmXJYxeeuXbti3bp1sXXr1qipqYkpU6Yc9srmLVu2xKZNm2LXrl2RTqfj9a9//UHvefXVV+OXv/xlbN++PU4//fQjfl1/97vfRWdnZxQKhTjppJNi0qRJ/p1TRGVlZfGZz3wmPve5zyUdBShhzz//fNTU1MSyZcvi0ksvParneuWVV+Kyyy6L73//+/2UDgbGD3/4wxgzZkxcdNFF/f7cc+bMiWXLlvUY37hx41F/yBHgSFgBDFCizj333KQjAEPYvffeGzfccEPSMXp497vfHS0tLUnHgEFr4sSJMXHixKRjHNTrX//6Qyo0j8bIkSPj9NNPj9NPP/2w7y0rK4vJkycf8TfrRowYETNmzDiie/c67rjjDrvAraysjDPPPPOo5o2IGDduXL88T6nYsmVLrF27tsd4bW1t1NTUJJAIAADgwBTAAAD08Nxzz0U+n086Rg+nnHJK0hEAGGbWrFkTs2bN6jF+xx13xJw5cxJIBAAAcGD9t58aAAAAAAAAAIlSAAMAAAAAAACUCFtAAwAAMGAuuuiiOPHEE4/6TFwAAADg0CiAAQAAGDDve9/74n3ve1/SMQAAAGDYsAU0AAAAAAAAQIlQAAMAAAAAMOBqamqirKxs0P34zW9+k/RLAwD9SgEMAAAAAAAAUCIUwAAAAAAAAAAlYkTSAQAAGHwuuOCCWLFiRdIxeqipqUk6AgAAAAAMagpgAAB6OPHEE+PEE09MOgYAAAAMerW1tVFfX99jvLKyMoE0AApgAAAAAACAI9bS0hItLS1JxwDo5gxgAAAAAAAAgBKhAAYAAAAAAAAoEQpgAAAAAAAAgBLhDGCgZJSVlUV9fX2v16ZNm1bkNAAAAAAAAMWnAAZKRnl5eeTz+aRjAAAAANCLzZs3Jx0BBsT69et7/f1dV1cXlZWVCSQChjsFMAAAMCxUVVX1uVvIlClTipwGAAAoFddff30sW7asx/jGjRtj8uTJCSQChjsFMAAAMCxMnz7dbiEAAABAyStPOgAAAAAAAAAA/UMBDAAAAAAAAFAiFMAAAAAAAAAAJcIZwEDJ6OrqipUrV/Z6raqqKmbOnFnkRAAAAAAAAMWlAAZKxp49e6KhoaHXa3V1dbFq1ap+n3PNmjVRVlbW788LMJB+/vOfx+9+97ukY8ABvfzyy0lHAAAAABiSFMAAR2jx4sWxZ8+epGMAHJazzz477r333tiwYUPSUeCALrzwwn7/kNW2bdti9erVvV6bMGFCTJ06tV/nAwAAAEiCAhjgCF155ZVJRwA4bBdeeGFceOGFSceARKxbt67P3ULmzZsXS5YsKXIiAAAAgP5XnnQAAAAAAAAAAPqHAhgAAAAAAACgRCiAAQAAAAAAAEqEM4ABAAAABpGVK1dGa2tr0jGAEvb73/8+6QgAwABSAAMAAAAMIj/96U/jpz/9adIxAA5ZPp+PbDabdAw4oBdeeCH+8R//MekYAEWhAAYAAAAYJLq6upKOAHBYKisr48knn0w6BhySsWPHJh0BoCgUwAAAAAAAHJGysrJIpVJJxwAA9lGedAAAAAAAAAAA+ocCGAAAAAAAAKBE2AIaAAAAoA+pVCrq6+t7jNfU1CSQBgAA4OAUwAAAAAB9mDlzZuTz+aRjAAAAHDJbQAMAAAAAAACUCAUwAAAAAAAAQIlQAAMAAAAAAACUCAUwAAAAAAAAQIkYkXQAAAAAgMFqy5YtsXbt2h7jtbW1UVNTk0AiAACAA1MAAwAAAPRhzZo1MWvWrB7jd9xxR8yZMyeBRAAAAAdmC2gAAAAAAACAEmEFMMARuummm+JnP/tZpNPppKMAw0Aul4vOzs6jfp6vfOUr8fLLLx99IBhgV199dVRVVSUdAwAAAGDIUQADHIWmpqbIZrNJxwCGgXw+3y/Pc+ONN8b//u//9stzwUC6/PLLFcAAAAAAR8AW0AAAAAAAAAAlQgEMAAAAAAAAUCIUwAAAAAAAAAAlQgEMAAAAAAAAUCJGJB0AAAAAgD/4+te/nnQEYBhpbGyMk08+OekYAEA/UwADAAAADBI/+MEPIp/PJx0DGAby+Xz8z//8z1EXwIsWLYqrr766n1LBwPnYxz4WixcvTjoGQFEogAEAAAAAAI5QbW1t1NfX9xivrKxMIA2AAhgAAAAAAOCItbS0REtLS9IxALqVJx0AAAAAAAAAgP6hAAYAAAAAAAAoEQpggAQUCoVYvHhxNDQ0xOLFi6NQKBz0nnw+H3Pnzo25c+dGPp8fkDk6Ojq652hvbz+UXwoAAAAAADCIOAMYIAENDQ3R0dEREX8odtvb22PFihV9Pr69vT1mz57d/XUul4vly5dHY2Njn/fMnj27uyjO5/ORy+VizZo1fT4+n89HQ0PDfnMsWrQompubD/WXBQAAAAAAJMwKYIAia29v7y5/98rn8wdc1dvW1nZIYwd6vo6OjgOu6m1tbe0xtnjx4j4fDwAAAABErF+/vvv7cfv+ePXVV5OOBgxTVgADFFlnZ2e/3NNfz3MgW7ZsOew5AAAAAGA4uf7662PZsmU9xjdu3BiTJ09OIBEw3FkBDFBkvW3bXF1dHel0+rDuOdD2z+l0Oqqrqw/rnmw2e1iPBwAAAAAABh8FMECRpdPpWL58eXdBW11dHblc7oAFcGtra1x88cXdX1988cW9btm87xy5XG6/OZYvX37QOebPn9/9dX19/QG3mQYAAAAAAAYfW0ADJKCxsTEKhcIhPz6VSh3w/N7+mCPiD+cKt7W1RaFQiFQqdVj3AgAAyTuSf8sf7j1732cc7j3eYwAAQHFYAQxAD74xAwAAQ0uhUIiGhoY47rjjoqysLGbPnn3Qe3K5XBx33HHdPw72odNCoRCzZ8/ufvzs2bMP+qHT9vb2w5oDAAA4elYAAyWjrKws6uvre702bdq0IqcBAAAonubm5sjn891ft7e3R2tra59Hx3R2dsbcuXO7vy4UCjF37tzIZDJ9Hh3T2tq6X4Hb3t4ekyZN6vPomL1z7C2J9xbImzZtOuDxNAAAwNFRAAMlo7y8fL9veADQ09VXXx0vv/xy0jHgoKqqqpKOADCk3H333T3GDvT+qLeVuIVCITo7O/ssZ3ub4+677z5gAdzbCuH29vZobm7uMxsAAHB0FMAAAMPIxz/+8aQjQGKqqqr63C1kypQpRU4D0L+qq6sPuh3zvo5kBe6kSZOis7Ozx9jhsvoXAAAGlgIYAAAYFqZPn263EKBktba27rel896xvjQ2NsaMGTNi7dq13WP19fWRzWb7vKe5uTlWrlzZY6wv2Ww26uvr97tnxowZ0djY2Oc9AADA0VMAAwAAAAxxTU1NkU6nI5fLRSqViqampshkMge8J5/PRy6Xi3w+H9ls9qDbMjc2NsaKFSsil8t1z3mgwnjvHG1tbd1zNDU1HcavCgAAOBIKYAAAAIASkM1mD1rI7iuVSkVzc/Nhncd7uHNExGHPAQAAHJ3ypAMAAAAAAAAA0D+sAAZKRldXV4/zqPaqqqqKmTNnFjkRAAAAAABAcSmAgZKxZ8+eaGho6PVaXV1drFq1qsiJAAAAAErbggULYsGCBUnHAAD2oQAGAACGhW3btsXq1at7vTZhwoSYOnVqkRMBAAAA9D8FMAAAMCysW7euz91C5s2bF0uWLClyIgAAAID+V550AAAAAAAAAAD6hwIYAAAAAAAAoETYAhoAAACgD6lUKurr63uM19TUJJAGAADg4BTAAAAAAH2YOXNm5PP5pGMAAAAcMltAAwAAAAAAAJQIBTAAAAAAAABAibAFNECR5fP5WLlyZdIxKGH19fWRzWaTjgEAAAAAQAIUwABFls/nY+HChUnHoIRdd911CmAAAAAAgGFKAQwAAADQhy1btsTatWt7jNfW1kZNTU0CrsQTIAAAIABJREFUiQAAAA5MAQwAAADQhzVr1sSsWbN6jN9xxx0xZ86cBBIBAAAcmAIYAGAY2bBhQ+zatSvpGHBQU6dOjZEjRyYdAwAAAGDIUQADAAwjL7/8cuzYsSPpGHBQXV1dSUcAAAAAGJLKkw4AAAAAAAAAQP+wAhgAAABgiCsrK0s6AiXO7hwAAEOHFcAAAAAAAAAAJUIBDAAAAAAAAFAibAENAAAAAMAR2bFjR7zyyitJx4CDGj16dFRWViYdA6AoFMAAAAAAAByRF198MTZt2pR0DDioCRMmxKmnnpp0DICisAU0AAAAAAAAQImwAhigyNLpdNTX1ycdgxKWTqeTjgAAAAAwbNTW1vb6/T5bTgNJUQADFFlTU1M0NTUlHQMAAAAA6ActLS3R0tKSdAyAbraABgAAAAAAACgRCmAAAAAAAACAEqEABgAAAAAAACgRCmAAAAAAAACAEjEi6QAAAAAAAABD1fr162Pz5s09xuvq6qKysjKBRMBwpwAGAAAAGOKuu+66pCMAwLB1/fXXx7Jly3qMb9y4MSZPnpxAImC4UwADAAAADHGtra1JRwAAAAYJZwADAAAAAAAAlAgFMAAAAAAAAECJsAU0QJG99tpr8eqrryYdg0Fm3LhxUVFRkXQMhoEzzjgj9uzZk3QMOKhRo0YlHQEAAABgSFIAAxTZiy++GJ2dnUnHYJA588wzo7q6OukYDAPHHnts0hEAAAAAgAFkC2gAAAAAAACAEqEABgAAAAAAACgRCmAAAAAAAACAEqEABgAAAAAAACgRI5IOAAAAAADA0DR69Oiorq5OOgYc1JgxY5KOAFA0CmAAAACAIe7xxx+Prq6upGMwiBx77LGRTqeTjsEwMH78+Bg/fnzSMQCAfSiAgZJRVlYW9fX1vV6bNm1akdMAAAAUz9atW5OOwCBTXu7kNwCA4UoBDJSM8vLyyOfzSccAAAAAAABIjAIYoMhGjx4dVVVVScdgkBkxwl/JAAOtqqqqz91CpkyZUuQ0AAAAAAPDd5sBiuz444+P448/PukYADDsTJ8+3W4hAAAAQMlzGAgAAAAAAABAiVAAAwAAAAAAAJQIW0ADAAAA9CGVSvV6fnhNTU0CaQAAAA5OAQyUjK6urli5cmWv16qqqmLmzJlFTgQw+Dz22GOxY8eOpGMwwN7+9rfHqFGjko4BUBJmzpzp/HAAAGBIUQADJWPPnj3R0NDQ67W6urpYtWpVkRMBAAAAAAAUlwIYAAAYFrZt2xarV6/u9dqECRNi6tSpRU4E0H/e9KY3RVdXV9IxGERGjPBtPwCA4cq/BAEAgGFh3bp1fe4WMm/evFiyZEmREwH0n6qqqqQjAAAAg0R50gEAAAAAAAAA6B9WAAMAAAD0YcuWLbF27doe47W1tVFTU5NAIgAAgANTAAMAAAD0Yc2aNTFr1qwe43fccUfMmTMngUQAg8uOHTvilVdeSToGA2z06NFRWVmZdAwADpECGAAAAACAI/Liiy/Gpk2bko7BADvppJNi8uTJSccA4BA5AxgAAAAAAACgRCiAAQAAAAAAAEqEAhgAAAAAAACgRCiAAQAAAAAAAEqEAhgAAAAAAACgRIxIOgDAULZgwYJIpVJJxwCGgbVr1yYdAQAAAAAYAhTAAEfhsssui0wmk3QMYBhobm5OOgIAAAAAMAQogAGOQiaTiWw2m3QMYBiw2wAAAAAAcCgUwAAAAAAAAEeotrY26uvre4xXVlYmkAZAAQwAAAAAAHDEWlpaoqWlJekYAN3Kkw4AAAAAAAAAQP9QAAMAAAAAAACUCFtAAwAMI29/+9uTjgAAHEBHR0dks9mkYwDDQKFQiLa2tqRjAAADQAEMAAAAMEhkMpnI5/NJxwCGAX/WAEDpUgADAAAAAAAcofXr18fmzZt7jNfV1UVlZWUCiYDhTgEMAAAAAABwhK6//vpYtmxZj/GNGzfG5MmTE0gEDHflSQcAAAAAAAAAoH8ogAEAAAAAAABKhC2gAQAAAAA4IqNHj47q6uqkYzDAnGMLMLQogAEAAAAAOCLjx4+P8ePHJx0DANiHLaABAAAAAAAASoQCGAAAAAAAAKBEKIABAAAAAAAASoQzgAGI9evXx0svvZR0DAaRTCYTY8eOTToGAAAAAACHyQpgAAAAAAAAgBKhAAYAAAAAAAAoEbaABkhYR0dHbN26NaqrqyOTySQdBwAAAAAAGMKsAAZIyO233x6ZTCZaW1tjxYoV0draGul0OhYvXpx0NAAAAAAAYIiyAhggAc3NzVEoFCKfz0cqleoeLxQK0dzcHHPnzo2lS5cmmBAAAAAAABiKFMAARZbP56OzszPa29t7XEulUpHL5aKpqan7vwAAAEPNjh074rnnnks6BoPI2LFjY/z48UnHAAAYFhTAAEW2cOHC7tW9hUIhFixYEPl8PjKZTCxdujRSqVS0tbVFNptVAAMAAEPSa6+9Fs8++2zSMRhEjj/+eAUwAECROAMYoMi2bNkS6XQ6IiLa2tpixowZsWnTprj44oujubk5Iv6wEjiVSkWhUEgwKQAAAAAAMNQogAGKbN8zf/P5fGSz2YiIaGpqis7Ozu5r6XQ6Ojo6ipwOAAAAAAAYymwBDVBkW7du7f55U1NTLF68uPvM371lcEREZ2dnZDKZomSqra0tyjwAADDUpFKpqK+v7zFeU1OTQJqD6+zsjMWLF3d/mDSTycT8+fO7dyECAABKnwIYKBllZWW9fmMmImLatGlFTtO3SZMmRWdnZ6TT6e4zfpcuXbrfmb+FQiEKhcJ+q4UBAIDimzlzZuTz+aRjHJKFCxfGihUroqmpKebPnx8RER0dHdHU1BRvectbYtGiRQknBAAAikEBDJSM8vLyIfGNmcbGxmhra4u2traI+MMq4L3F7165XK7HGAAAQF9aW1ujs7Ozx3uidDodjY2N0dTUFK2trdHa2ppIPgAAoHgUwABF1tTUFJlMps8VvoVCIXK53JAoswFgKKmqqupzt5ApU6YUOQ1A/+ns7IxcLhednZ3dYytXroyI6P5zL5fLRSaTiaamJttBAwBAiVMAAySgtbU1mpubI5fL9bjW1tYWjY2Ntn8GgH42ffp0H7ACSlJ7e/t+K3tnz54d1dXVkUqlorW1NVasWBEREc3NzdHe3h7Nzc0JJQUAAIqhPOkAAMNRY2Njr9uzdXR09PjmDQAAwIF0dHR0r+rt6OiI6urqyOVy0dbWFpMmTep+35FOp30QBgAAhgErgAESksvlIpvNRkdHR6RSqSgUCjF37txeVwUPtO3bt8fOnTuLPm+pGTduXFRUVCQdAwCAfrRly5ZYu3Ztj/Ha2tqoqalJIFFP/3f3oKeffrr751u3bt3verF2Gho9enS84Q1vKMpcDA1jx45NOgIAwLChAAZISDqdjra2tpg7d24sX748FixYEJdddllkMpmiZ3n66afjpZdeKvq8pebNb35zHHvssUnHAACgH61ZsyZmzZrVY/yOO+6IOXPmJJCop3Q6HR0dHZHNZiOTycSkSZPiLW95S6RSqZg0aVL3e4zOzs6ivd8YNWpUTJw4sShzAQAA+1MAAyWjq6srVq5c2eu1qqqqmDlzZpETHVxjY2Pk8/loaGiISZMmOYsLAAA4bI2NjTF79uzu9xO5XC46OzsjIrq3ho6IuP3222Pp0qUJJAQAAIpJAQyUjD179kRDQ0Ov1+rq6mLVqlVFTnRo2traoq2tLZqampKOAgAADEHpdDqqq6sjn89HNpvtHttXR0dHdHV19RgHAABKjwIYYBCw8hcABt62bdti9erVvV6bMGFCTJ06tciJAPpPa2trLFy4sLsA/r8WLFgQra2tRc0EAAAkQwEMAAAMC+vWretzt5B58+bFkiVLipwIoP9ks9nI5XLR3t4ejY2N+11rb2+P6urqPsthAACgtCiAAQAAAEpAW1tbZDKZyGazkUqlIiKiUChEc3NzdHR0JJwOAAAoFgUwAAAAQAlIpVLR1tYWs2fPjhUrVkRExOzZs6Otra27EC6W7du3x1NPPVXUOUtRdXV1TJw4MekYAAAMMQpgAAAAgBLR2NgY+Xw+mpubI5VKxYwZM3psCV0Mu3fvjm3bthV93lIzYoRv3QEAcPj8KxIAAACghLS1tXWf95vP5xPNAgAAFJ8CGIAYO3Zs7Nq1K+kYQ15FRUXSEQAAICL+UPwWCoWkYwAAAAlQAAPgTCkAAChBxT73FwCGq9ra2qivr+8xXllZmUAaAAUwAAAAAADAEWtpaYmWlpakYwB0K086AAAAAAAAAAD9QwEMAAAAAAAAUCIUwAAAAAAAAAAlQgEMAAAAAAAAUCJGJB0AAAAAgNJyzDHHxJlnnpl0jCFv5MiRSUcA4BCsX78+Nm/e3GO8rq4uKisrE0gEDHcKYAAAAAD6VUVFRVRXVycdAwCK4vrrr49ly5b1GN+4cWNMnjw5gUTAcGcLaAAAAAAAAIASoQAGAAAAAAAAKBEKYAAAAAAAAIASoQAGAAAAAAAAKBEjkg4AMJQtWLAgUqlU0jGAYWDt2rVJRwAAAAAAhgAFMMBRuOyyyyKTySQdAxgGmpubk44AAAAAAAwBCmCAo5DJZCKbzSYdAxgG7DYAAAAAABwKBTAAwDDS0NCQdAQ4JCtWrEg6AgAAAMCQpAAGABgmdu/eHfl8PukYAAAAAMAAKk86AAAAAAAAAAD9QwEMAAAAAAAAUCJsAQ0AAAAwSHR0dEQ2m006BjAMFAqFaGtrSzoGADAAFMAAAAAAg0Qmk4l8Pp90DGAY8GcNAJQuBTAAAAAAAEfkqaeeimeffTbpGHBQp512WrzhDW9IOgZAUSiAAQAAAAA4IjfffHN85StfSToGHNSXvvSl+OQnP5l0DICiKE86AAAAAAAAAAD9QwEMAAAAAAAAUCJsAQ1ArF+/Pl566aWkYzCIZDKZGDt2bNIxAAASl0qlor6+vsd4TU1NAmkAAAAOTgEMAAAA0IeZM2dGPp9POgYAAMAhswU0AAAAAAAAQIlQAAMAAAAAAACUCAUwAAAAAAAAQIlwBjBAgu6+++7I5/PR0dER6XQ6stlsXHbZZUnHAgAAAAAAhigFMEACCoVCNDQ0xIwZM6KpqSkuvvjiiIhob2+Ptra2WLp0aWQymYRTAgAAW7ZsibVr1/YYr62tjZqamgQSDQ07duyI5557LukYDCJjx46N8ePHJx0DAGBYUAADFFmhUIjGxsZYtGhRZLPZ/a5ls9no6OiIxsbG6OjoiFQqlUxIAAAgIiLWrFkTs2bN6jF+xx13xJw5cxJINDS89tpr8eyzzyYdg0Hk+OOPVwADABSJAhgoGWVlZVFfX9/rtWnTphU5Td/a2tqisbGxu/wtFAqxdu3amDRpUqTT6chkMpHL5aK5uTlyuVyiWQEAAAAAgKFFAQyUjPLy8sjn80nHOKj29vbo6OiIiOhe7dvU1NS9/XM2m41sNhtNTU1RKBSsAgYAAAAAAA6ZAhigyPYtdNva2iKXy3UXvk1NTd0ldiaTiY6Ojh7bRA+E2traAZ8DAJJWVVXV524hU6ZMKXIaAAAAgIGhAAYYxKz+BfpTRUVFrFixIukYkJjp06cPid1CAPpDoVCICO8pAABgOFIAAxRZZ2dn98+bm5ujsbExZs+eHStWrIi2trbua2vXro1MJpNAQqCUFWNXAQAgGYVCIRYvXhxLly6NdDodEX94/zF37tyYP3++MhgAAIaJ8qQDAAw32Ww22tvbI+L/b/N88cUXRz6f7y5mOjo6YsaMGQmmBAAAhpJCoRANDQ1RXV0dnZ2dkc/nI5/PR2dnZ1RXV0djY2P3qmAAAKC0KYABiqy5uTkWL17c/XUqlYpsNtvjbODm5uYk4gEAAEPQ7NmzY9GiRb2+j2hubo7W1taYPXt2AskAAIBiswU0UDK6urpi5cqVvV6rqqqKmTNnFjlR7zKZTHR1de234ndfnZ2d0dnZaZtWAADgkOTz+Zg0adJ+OwotXLgwIiKuu+66yGQykc1mI5fLRXt7ezQ2NiaYFgAAGGgKYKBk7NmzJxoaGnq9VldXF6tWrSpyor7lcrloaGiITZs29bg2d+7caG1tLWqe7du3x86dO4s6ZykaN25cVFRUJB0DAIBhJp/Pd5e6hUIhGhsbI5fLRUREY2NjdHR0RCqVisbGxv0eO5BGjx4db3jDGwZ8HoaOsWPHJh0BAGDYUAADJCCdTsdll10Wra2t+5W9bW1tMWPGjKKv/n366afjpZdeKuqcpejNb35zHHvssUnHAKAP27Zti9WrV/d6bcKECTF16tQiJwLoH/vuINTR0RGNjY3dXzc1NUVHR0f3sTMdHR1FyTRq1KiYOHFiUeYCknXaaafZxYwhYSD/XqqtrY36+voe45WVlQM2J8CBKIABEtLa2tq9FVs2m42Ojo7I5XKRz+eTjgYAJWndunV97hYyb968WLJkSZETAfSPdDrd/fNMJhPNzc3R2dkZERHt7e3R1NTUfV1JA/S3K664Iq644oqkY0CiWlpaoqWlJekYAN0UwAAJam9vj2w2G/l8PpqbmyOXy0UqlUo6FgAAMIRkMpnu9xapVCra2tq6S9+2trbugri9vT0ymUxyQQEAgKIoTzoAwHCWTqcjl8vF5MmTo6mpyTdjAACAw9bY2Bjt7e3dX+/9kGk+n99vxW+xzv8FAACSpQAGSFg2m41Nmzbtty0bAADA4WhqaopcLtfn9VwuF42NjXYcAgCAYcAW0ACDwL5ndgEAAByu5ubmyGQyvZa8hUIhWltbo6OjI6F0AABAMSmAAQAAAIa4VCoVra2t0draGm1tbftda21tjebm5qKu/t2+fXs89dRTRZuvVFVXV8fEiROTjgHAQaxfvz42b97cY7yuri4qKysTSAQMdwpgAAAAgBLQ1NQU2Ww22tvbu8/6zefz0dHR0aMUHmi7d++Obdu2FXXOUjRihG/dAQwF119/fSxbtqzH+MaNG2Py5MkJJAKGO/+KBAAAACgR7e3tkclkIpPJRCqViqampsjn80nHAgAAikgBDECMHTs2du3alXSMIa+ioiLpCAAADHOpVCpyuVzMnj07IiJyuVyk0+lkQwEAAEWlAAbAmVIAAFBCstlszJ8/v/vnAADA8KIABgAAACgxTU1NSUcAAAASUp50AAAAAAAAAAD6hwIYAAAAAAAAoEQogAEAAAAAAABKhDOAAQCGkV27dsWGDRuSjgEHNWLEiDjjjDOSjgEAAAAw5CiAAQCGkT179sTWrVuTjgEHNXLkyKQjAHAUjjnmmDjzzDOTjjHk+fsQAIAjoQAGAAAAoF9VVFREdXV10jEAAGBYcgYwAAAAAAAAQIlQAAMAAAAAAACUCAUwAAAAAAAAQIlQAAMAAAAAAACUiBFJBwAAAAAAYOh68skn44UXXkg6BhzU6aefHq9//euTjgEw4KwABgAAAAAAACgRCmAAAAAAAACAEmELaAAAAIA+pFKpqK+v7zFeU1OTQBoAAICDUwADAAAA9GHmzJmRz+eTjgEAAHDIbAENAAAAAAAAUCIUwAAAAAAAAAAlQgEMAAAAAAAAUCIUwAAAAAAAAAAlYkTSAQCGsttvvz1WrlyZdAxgGHj66aeTjgAAw9KWLVti7dq1PcZra2ujpqYmgUQAAAAHpgAGOAozZsyITCaTdAxgGFi+fHnSEQBgWFqzZk3MmjWrx/gdd9wRc+bMSSARAADAgSmAAY5CJpOJbDabdAxgGEilUklHAAAAAACGAGcAAwAAAAAAAJQIK4ABAIaRUaNGxZlnnpl0DDio8nKfVQUAAAA4EgpgAIBhprq6OukIAAAAAMAA8bF6AAAAAAAAgBJhBTAAAADAILFy5cooKytLOgYwTKxYsSLpCADAAFAAAwAAAAwS9fX1kc/nk44BDAP+rAGA0qUABkpGWVlZ1NfX93pt2rRpRU4DAAAAAABQfApgoGSUl5f79CoAAAAAADCsKYABAIBhoaqqqs/dQqZMmVLkNAAApWPKlCn+PcWwVltb2+t7jcrKygTSACiAAQCAYWL69Ol2CwEAAPpdS0tLtLS0JB0DoFt50gEAAAAAAAAA6B8KYAAAAAAAAIASYQtoAIBhZNeuXbFhw4akYzDARowYEWeccUbSMQAAAABIgAIYKBldXV2xcuXKXq9VVVXFzJkzi5yop87Ozrj99tuTjjGoXHbZZZFOp5OOwQDL5XLx9NNPJx1j0Jg0aVI0NTUlMveePXti69aticxN8YwcOTLpCAAAAAAkRAEMlIw9e/ZEQ0NDr9fq6upi1apVRU7UU2dnZ7S2tiYdY1Cpr69XAA8DuVyuzw9oDEf19fWJFcAAAABA/1q/fn1s3ry5x3hdXV1UVlYmkAgY7hTAAADAsLBt27ZYvXp1r9cmTJgQU6dOLXIigP/H3p2H53Tn/x9/ZZFVSJDYIhK7xF5Ve4SiGDpNMdFGUXT7tp3pNopa2kGHqY5qSy21FKUUtcwotRfVGrWLrbE1VKSCCLHl/P7wy12Rc99ZJPcdd56P68o108/7nHO/zp077fmc933OAQAAzmD06NGaN29elvH4+HiFhYU5IBGAoo4GMAAAAIAi4cCBA1bvFjJw4EBNnTrVzokAAAAAAADyn6ujAwAAAAAAAAAAAAAA8gdXAAMAAAAAAAAA8uzatWu6ceOGo2OggPn4+KhYsWKOjgEAyAEawAAAAAAAAACAPDt9+rTOnz/v6BgoYNWrV1dQUJCjYwAAcoBbQAMAAAAAADzA2rRpIxcXF37+/0+bNm0c/SuBHWzcuNHhn7XC9rNx40ZH/1oAAEAhQQMYAAAAAAAAAAAAAJwEDWAAAAAAAAAAAAAAcBI8AxgA7Cg0NFQjRoxwdIxCJTQ01NERYAd9+/blVnx34XMPAAAAAAAAoKDQAAYAOwoNDdXIkSMdHQOwu759+zo6AgAAAAAAAAAUCdwCGgAAAAAAAAAAAACcBA1gAAAAAAAAAAAAAHASNIABAAAAAAAAAAAAwEnQAAYAAAAAAAAAAAAAJ0EDGAAAAAAAAAAAAACchLujAwAAAAAAACDvNm7c6OgIgN21adNGhmE4OgYAAEChxBXAAAAAAAAAAAAAAOAkuAIYAACgCPHw8FCdOnUcHQMFzNWV73kCAAAAAAAUVTSAAQAAipiSJUs6OgIAAA8Mf39/RUZGZhkvW7asA9IAAAAAQPZoAAMAAAAAAFjRqFEjnrELAAAA4IHCveEAAAAAAAAAAAAAwEnQAAYAAAAAAAAAAAAAJ0EDGAAAAAAAAAAAAACcBM8ABgAAAAAAAADkmbe3t0qWLOnoGChgHh4ejo4AAMghGsAAAAAAAABWJCcna8+ePVnGa9eurbJlyzogEQAUPpUqVVKlSpUcHQMAAPx/NIABAAAAAACs2LVrl9q1a5dlfM6cOYqNjXVAIgAAAACwjWcAAwAAAAAAAAAAAICT4ApgAMijyMhIbdq0Sfv373d0FABFQPfu3R0dAQAAAAAAAMADgAYwAORR3bp1VbduXUfHAAAAAAAAAAAAsOAW0AAAAAAAAAAAAADgJGgAAwAAAAAAAAAAAICToAEMAAAAAAAAAAAAAE6CBjAAAAAAAAAAAAAAOAl3RwcAAAAAAADAHSdPntS7777r6BgAioATJ06oT58+jo4BAAAKAA1gAAAAAACAQuL48eOOjgAAAADgAUcDGAAAAAAAAAAAII9q166tyMjILONeXl4OSAMANIABAAAAAAAAAADybOjQoRo6dKijYwCAhaujAwAAAAAAAAAAAAAA8gcNYAAAAAAAAAAAAABwEjSAAQAAAAAAAAAAAMBJ8AxgAE7DxcVFkZGRprXw8HA7pwEAAAAAAAAAALA/GsAAnIarq6s2btzo6BgAAAAAAAAAipC4uDidO3cuy3jTpk3l5eXlgEQAijoawAAAAACKhBIlSli9W0iNGjXsnAYAAACAsxg9erTmzZuXZTw+Pl5hYWEOSASgqKMBDAAAAKBIiIiI4G4hAAAAAADA6bk6OgAAAAAAAAAAAAAAIH/QAAYAAAAAAAAAAAAAJ0EDGAAAAAAAAAAAAACcBM8ABuA0DMPQypUrlZaWlunn2rVr8vb21iuvvOLoiAAAAAAAAAAAAAWKBjAAp9KtWzfTcR8fHxrAAAAAAAAAAADA6dEABuA0XFxcrNauXr2qc+fOqWzZsnZMBAAACpNFixZp7ty5CggIUKlSpRQQEGD5/y1atFDlypUdHREAAAAAAOC+0QAGUGTEx8fTAAYAoAhbu3atli9fblqbMmWKnnvuOTsnAgAAAAAAyH+ujg4AAPmpdu3aVmvx8fF2TAIAAAqbAwcOWK0FBwfbMQkAZ2AYhqMjAACAQiI9Pd103NYdCwGgINEABuBUatSoYbVGAxgAgKJt9+7dVmshISF2TALgQeLubn7ztKtXr9o5CQAAKKwuX75sOm7tOAIAChoNYABOpXr16lZrv/zyix2TAACAwiQhIUGpqalW6zSAAVhTrFgx0/ErV67YOQkAACisLl68aDpu7TgCAAoaDWAAToUrgAEAgBlbt38uXry4SpQoYcc0AB4kNIABAEB2kpOTTce5AhiAo9AABuBUatWqZbVGAxgAgKJr//79VmsNGjSwYxIADxprDWBbdxUAAABFC1cAAyhsaAADcCoPP/ywvLy8TGsJCQk6deqUnRMBAIDCwFYDODIy0o5JADxoPDw8TMfPnj1r5yQAAKCwsnYFMA1gAI5CAxiAU/Hy8lKzZs2s1ufPn2/HNAAAoLBYvXq11Vrbtm3tmATAg8baLeKPHj1q5yQAAKAwunjxoq5du2Za8/b2tnMaALiDBjAApxMVFWW19tVXX9kxCQAAKAw2bdqkM2fOWK3TAAZgi7+/v+l4XFycnZMAAIDC6KeffjIdb9iwoZ2TAMAfaAADcDq2GsC7du3im/oAABQxc+fOtVpr06aN/YIAeCD5+vqnXKPEAAAgAElEQVSajgcGBvIcYAAAoN27d5uO16xZ085JAOAP7o4OAAD5rWXLlvL399fFixdN61999ZXeeecdO6cCAACOYusREJ07d7ZjEgAPqoEDB8rPz0/h4eGqU6eO6tWrxy0dAQCAJOsN4Bo1atg5CQD8gQYwAKfUvXt3TZ8+3bS2cOFCGsAAABQRixYtsnmFXq9eveyYBsCDaurUqY6OAAAACilrDeDw8HA7JwGAP3ALaABO6amnnrJa27dvH7eBBgCgiLB1++fWrVsrODjYjmkAAAAAOJu4uDjTcVuPqQOAgkYDGIBTioqKUtmyZa3Wx40bZ8c0AADAES5evKjly5dbrT/99NN2TAMAAADA2axatcp0vFatWgoKCrJzGgD4Aw1gAE7L1knd6dOna//+/XZMAwAA7C27L3z16NHDTkkAOLNz5845OgIAAHCQhQsXmo63bdvWzkkAIDMawACc1vPPP2+z/tZbb9kpCQAAsLdTp07p/ffft1p/5plnFBAQYMdEAJzJihUr1KdPHwUEBOiVV15xdBwAAOAgixcvNh3n9s8AHM3FMAzD0SEAoKD07NlTixYtslpfv349B2QAADih6OhoLV261Gr9yJEjql69uh0TAXjQnTp1SoMHD9aKFSuUkpKSqXbhwgW+VAIAQBGzcuVKde3a1bTGsQEAR+MKYABObfjw4Tbrr776qp2SAAAAe9m8ebPN5m90dDTNXwC5FhAQoC+//DJL81eS5s+f74BEAADAkazd/rlbt240fwE4HA1gAE6tTp066tixo9X6/v37NXv2bDsmAgAABe3FF1+0WR86dKidkgBwJn5+fnryySdNa7NmzbJvGAAA4FBJSUn6+uuvTWtPP/20ndMAQFY0gAE4vXfeecdmfejQoUpLS7NTGgAAUJAmTZqkgwcPWq136tRJjRo1smMiAM7kqaeeMh3fsWOHzX/3AAAA5zJhwgRdu3Yty3jx4sXVrVs3ByQCgMxoAANwei1btlSvXr2s1hMSEjRw4EA7JgIAAAUhOTk52y9+ffLJJ3ZKA8AZRUdHy8/Pz7T2wQcf2DkNAABwhCtXruijjz4yrT355JPy8vKycyIAyIoGMIAiYfz48fLx8bFanzt3rsaNG2fHRAAAIL91795dycnJVutDhgxRlSpV7JgIgDMaMGCA6fjMmTN16NAhO6cBAAD29umnn+rKlSumtVdffdXOaQDAnIthGIajQwCAPYwfP15vvvmmzWWWLVvGbVoAAHgA9e7dW3PnzrVar1Spkg4fPixvb287pgLgjM6cOaOKFSua1p544gktWbLEzokAAIA9BQYGKikpKct4u3bttHbtWgckAoCsuAIYQJHxxhtvqFatWjaXiYmJ0e7du+2UCAAA5IfRo0fbbP5Kd279TPMXQH6oUKGC+vfvb1pbunSpfvrpJzsnAgAA9jJ//nzT5q90545DAFBYcAUwgCLlwIEDaty4sdLS0qwuU758ee3cuVPly5e3YzIAAJAXixYtUs+ePW0uM3DgQE2dOtVOiQAUBUeOHFHNmjVNa61bt9amTZvsnAgAANjLV199pb///e86deqUZaxRo0bauXOnA1MBQGZcAQygSImIiNCECRNsLnP27Fl17txZ165ds1MqAACQF+vXr8+2+RseHq6JEyfaKRGAoqJGjRqKiYkxrW3evFnz5s2zcyIAAGAvf/nLX3T48GG99957lrsMvffeew5OBQCZcQUwgCIpOjpaS5cutbnM448/rm+++cZOiQAAQG7s2rVLLVu21NWrV60u4+Pjoz179qhatWp2TAagqDh79qyqVatm+u8hPz8/7d+/XyEhIQ5IBgAA7OXs2bOaOXMmt38GUOjQAAZQJKWkpKhBgwaKj4+3uVyHDh20ZMkS+fr62ikZAADIzu7du9W2bVslJyfbXG7u3Ll6+umn7ZQKQFH0z3/+U4MHDzatNW3aVD/88IOdEwEAAAAAt4AGUET5+flpzZo1Klu2rM3l1qxZo5YtW+r8+fN2SgYAAGz54Ycf1Lp162ybv8OGDaP5C6DAvf3226pSpYppbfv27Ro7dqydEwEAgPw2atQonThxwtExACBXaAADKLKqVq2qtWvXys/Pz+ZyCQkJSktLs1MqAABgzbx589S8eXOlpKTYXC42NpZncAGwmylTplitvf322/ruu+/smAYAAOSnSZMmadiwYapXr57mz5/v6DgAkGPcAhpAkbdlyxa1b9/eapP3p59+0sMPP2znVAAA4G4pKSmqXLlytlf+PvbYY1q1apWdUgHAHX/729/00UcfmdZ8fX21bds21atXz86pAADA/diyZYtatWqVaSw2NlaTJ09W8eLFHZQKAHKGBjAASFq1apU6d+6cZXzhwoXq0aOHAxIBAIB7bd68WZGRkVbrzZs317p16+Tl5WXHVABwR8OGDbV7927TWrly5bRjxw4FBwfbORUAAMiLffv2qVWrVrp06VKWWmhoqH788UcFBQU5IBkA5Ay3gAYASZ06ddLmzZvl6+trGXvnnXdsNn9///13e0QDAAD/X+vWrTV69GjTWlRUlNauXUvzF4DDLF261OrjZX777Td16NBBly9ftnMqAACQW/v27VObNm1Mm7+SVKtWLZq/AAo9GsAA8P+1atVKmzZtkr+/v7p166Z//OMfVpc9cuSIypQpo2effVZnzpyxY0oAAJzfkiVLrNaGDBmiLl26ZBqLjo7W+vXr5e3tXdDRAMCq0NBQff7551brcXFx6tSpk9WTyQAAwPF27typqKgoXbhwwbQeEhLCs4ABPBBoAAPAXR566CHt3LlTX331lc3l+vTpI0maOXOmqlatqrfeeivbZxICAADbpk2bpipVqujJJ5/U0qVLrS63YMECVa1aVdKd/yYvXrzYXhEBwKYePXpo7NixVuvbtm3TI488ol9//dWOqQAAQE6sXr1aLVu2tHrXP39/f61Zs0b+/v52TgYAucczgAEglyZNmqT/+7//yzJesmRJvf322/rrX//KFUgAAOTCpEmTNHbsWJ06dcoyFhISopMnT1pd58iRI9q6dav69etnj4gAkCtvvPGGPvzwQ6v1cuXKae3atYqIiLBjKgAAYM2nn36ql19+2eYyP/74o5o0aWKnRABwf2gAA0AuJCQkqGbNmkpNTbW6TIkSJRQTE6OYmBhFRUXZMR0AAA+O7du3a968eZo3b57Vu2iMHTtWf//73+2cDADyR+/evTV37lyrdT8/P61YsUKRkZF2TAUAAO71+uuv69///rfNZZYtW6Zu3brZKREA3D8awACQC48//riWL1+e4+UrVqyomJgYPf3002rYsGEBJgMAoPA7efKkZs+erblz5+ro0aPZLu/n56dffvlFgYGBdkgHAPmvR48e+vrrr20uM2rUKA0dOtROiQAAQIbTp0+rV69e2rp1q83lpk+frv79+9spFQDkDxrAAJBDx48fV4MGDXT58uU8re/v769GjRqpYcOGqlOnjurVq6dGjRrlc0oAAAqH/fv3a9++fdq7d6/27t2rffv26fTp07nezsCBAzV16tQCSAgA9hEbG6t58+bZXObhhx/WggULVKVKFTulAgCgaJs0aZIGDRqkK1eu2Fxu/vz5iomJsVMqAMg/NIABIBfOnj2rgQMH6j//+U++bbNUqVIqU6aMypYtq1KlSikwMFBly5aVu7t7rrf18ssvq0yZMqa1SZMmKTEx8X7jFrgXXnhB5cqVM61NnTpVZ86csXOi3BswYICCg4NNazNmzMj0jMvCqm/fvgoNDTWtzZ49W8ePH7dvoDzo3bu3qlatalqbO3eujh07ZudEuderVy/VrFnTtLZgwQIdOnTIzolyr2fPngoPDzetLVq0SAcOHLBzotyLjo5WvXr1TGtLly7Vnj177Jwo9x5//HGrd6JYsWKFdu7cmedtJycnKzExUefOnVNiYqISExN1/vz5PG/vXgEBAfrll18UEBCQb9sEAHt77bXXNGHCBJvLeHt7a/fu3apRo4adUgEAUPScPn1azzzzjDZu3JjtsqtXr1aHDh0KPhQAFIDcdxcAoAgrX768Vq5cqUWLFmnEiBGKi4u7721euHBBFy5c0JEjR+57Wz179rTaAJ48ebL2799/369R0B5//HGbDeD7aVLYy2OPPWa1Afz5559r27Ztdk6Ue1FRUTYbwBs2bLBvoDxo3ry51QbwvHnz9O2339o5Ue499NBDNhvAy5Yts3Oi3KtTp47VBvDXX3+thQsX2jlR7lWvXt1mA3jOnDl2TpR7ISEhNhvA06ZNs3OinOnfv7/GjBlD8xfAA+/f//63AgICNGLECKvLNGjQgOYvAAAFaOrUqXrzzTeVkpJiczlfX1+tXr1aLVq0sFMyAMh/ro4OAAAPoh49eujgwYNavXq1Onbs6Og4AADY5OLikqeaIwQFBWnEiBFKTEzU9OnTFRQU5OhIAJAvhg8fruXLl6t06dKm9ZkzZ9o5EQAARcOcOXNUv359Pf/889k2fx966CHt3r2b5i+ABx4NYAC4Dx06dNC3336rQ4cO6aWXXlKJEiUcHQkAgCxsPfWlsDwRpmnTppo+fbrOnTunkSNHKjAw0NGRACDfde3aVQcPHlTXrl0zjY8cOdL0rh//+9//1KRJE82dO9deEQEAcAqXL1/WuHHjFBwcrGeeeUZ79+7Ndp3Ro0frf//7n6pVq2aHhABQsGgAA0A+qFmzpj799FNdunRJX331lTp16uToSAAAFHrBwcEaPHiw4uPj9cMPP6h///6OjgQABS4oKEjLly/XF198oZIlSyosLMzqraHHjBmjHTt2qHfv3ipfvrzeffddJSYm2jkxAAAPhsuXL2vu3LmKjo5WuXLlNGjQICUkJGS7Xp06dbRv3z4NGTLEDikBwD54BjAA5LOePXuqZ8+eOnPmjJYvX64NGzZow4YNOn/+vENzFZYrvLLzoOTMK2ffPwDIziOPPKJ27drp0UcfVVRUlKPjAIDD9O7dWx07drQ6Tzhy5IiWLl1q+efffvtNI0eO1MiRI9W0aVO1a9dO7dq149+lAIAiLTk5WUuXLtXixYv13//+N1frenl5afjw4Ro8eHABpQMAx6EBDAAFpEKFCnrhhRf0wgsvSJL27dunDRs2aM+ePTp8+LAOHz6spKSkfH3NwvYcx7xwhn2wxdn3D0Dh5KhnANeuXVs1a9ZUeHi4mjVrpjZt2qh48eIF9noA8KAJCgqy+qzz999/3+p627dv1/bt2zV69GhJUmRkpOXfuRk/VapUKZDMAAAUFitWrFC3bt3ytG6rVq00a9Ys/nsJwGm5GFyKBAAOc/36dSUmJiotLU3Xr1/XjRs3LD/p6em53t7DDz8sX19f09qOHTuUmpp6v5ELXOPGja02B3bu3KmUlBQ7J8q9Ro0aWX0e9K5du3Tp0iU7J8q9Bg0ayN/f37S2e/duXbx40c6Jcq9evXoqVaqUaW3v3r26cOGCnRPlXt26dVW6dGnT2v79+/P9SyQFISIiwuqzXA8ePPhA3Maydu3aKlu2rGktLi5O586ds3Oi3KtZs6bKly9vWjt8+LDOnj2b5227u7vL09NTHh4e8vT0lKenp0qWLGn17w8AkL3Tp08rJCTkvrcTHBys8uXLq0KFCipfvryCgoJy/cWf0NBQ9e3bN8v4yZMnNXPmzPvOmF8qVapk+iiBX3/9VdOnT3dAInMVKlTQc889l2X87NmzmjJligMSmStbtqxefPHFLOOJiYmaNGmSAxKZK1OmjF5++eUs47///rs+/vhjByQyFxAQoL/+9a9Zxi9evKgJEyY4IJG5EiVK6PXXX88ynpKSovHjxzsgkTlfX1+99dZbWcavXr2qcePGOSCROS8vL7399tumtZEjR9o3jA3FihXT0KFDTWuFIeeFCxd09uxZDRgwQB07dsxUi4uLU3h4eK62FxYWpqFDh/L4GQBOjwYwAAAAAABAIbJ+/Xr16dNHv/76q6OjqE2bNtqwYUOW8c2bNysyMtIBicw1b95cW7duzTK+fft2NWvWzAGJzDVu3Fg7duzIMv7zzz/roYceckAic/Xq1dOePXuyjO/fv19169Z1QCJztWrVUlxcXJbxI0eOqGbNmg5IZK5KlSr65ZdfsoyfOHFCYWFhDkhkLjg4WKdPn84yfubMGVWsWNEBicwFBQWZfgkzKSnJ6pdPHcHf31/JyclZxi9fvqySJUs6IJE5Hx8f0wsG0tLS5O3t7YBE5v75z39q0KBBWcZLlCiRo4sFWrdurddee01//vOfCyIeABQ6ro4OAAAAAAAAgD+0bdtWp0+f1hdffFGomqwAADiKtS9FtWnTxuo6Pj4+6t+/v37++Wdt2rSJ5i+AIoUGMAAAAAAAQCHUu3dvbdy4USdOnNC7777rkOcUWrtxnKtr4TqlVJDPtM9PD8r7CQCFjdnV6ZLUsmXLLGNt27bV7NmzlZSUpOnTp6thw4YFHQ8ACh13RwcAAAAAAACAdZUrV9bw4cM1fPhwbd26VWvWrNHatWu1bdu2An9ta43V9PT0An/t3HhQnnD2oLyfAFDYWLsCuEWLFipVqpSioqIUFRWlbt26qVKlSnZOBwCFDw1gAAAAAACAB0SLFi3UokULvfvuu0pNTdXmzZu1bds2HThwQEeOHNGBAwccHREAgHxn7QrgFi1a6Pfff7dzGgAo/GgAAwAAAAAAPIB8fX3VqVMnderUKdN4cnKyLl26pLS0NN24cUPXr1/XjRs3dPPmzVy/hr+/v+l4vXr1tGHDhjzlLgglS5Y0HQ8PDy9UOf38/EzHq1evXqhyFi9e3HQ8LCysUOX08fExHQ8ODi5UOb29vU3Hy5UrV6hyenp6mo6XLl26UOX08PAwHS9ZsmShyunubn7q3cfHp1DldHNzMx338PBwWE4XFxd5eHjIw8NDnp6e8vDwsPp3BAAw52I8KPfIAQAAAAAAAAAAAADY5OroAAAAAAAAAAAAAACA/EEDGAAAAAAAAAAAAACcBA1gAAAAAAAAAAAAAHASNIABAAAAAAAAAAAAwEnQAAYAAAAAAAAAAAAAJ0EDGAAAAAAAAAAAAACcBA1gAAAAAAAAAAAAAHASNIABAAAAAAAAAAAAwEnQAAYAAAAAAAAAAAAAJ0EDGAAAAAAAAAAAAACcBA1gAAAAAAAAAAAAAHASNIABAAAAAAAAAAAAwEnQAAYAAAAAAAAAAAAAJ0EDGAAAAAAAAAAAAACcBA1gAAAAAAAAAAAAAHASNIABAAAAAAAAAAAAwEnQAAYAAAAAAAAAAAAAJ0EDGAAAAAAAAAAAAACcBA1gAACczI0bN3Tp0iVHx3BK6enpSkpKcnQMAAAAIFvMCwrO5cuXdf36dUfHAAAAsIoGMAAAkk6cOKF169ZpyZIlWr9+veLj4x0dKU9+++03hYSEKDAwUKtWrXJ0HKfTtm1bBQYG6p133nF0FAAAABQRly5dUlJSUq4ajswLCs6aNWsUGBiokJAQnTlzxtFxAAAATNEABgAUad98843q1q2rsLAwPfroo3ryySfVrl07Va1aVdWqVdPUqVOVnp7u6Jg5FhcXp3PnzunmzZvasmWLo+M4lbvf0w0bNjg4DQAAAIqKLl26KDAwUIsWLcrxOswLCs7WrVt148YNJSYm6sCBA46OAwAAYMpt5MiRIx0dAgAAR5gwYYL69eunxMRERURE6E9/+pPat2+v2rVr6+rVqzp69KhWrlypo0eP6oknnpCLi0um9T/88EMNHTpUNWrUUKVKlRy0F5mFhIQoLS1NVapU0dChQ+Xn5+foSE7Dzc1NISEhcnd31/DhwxUSEuLoSLhLYfx7BAAAyA8zZszQ6dOnFR0drXr16uVoHeYFBad27do6f/682rdvr4EDB8rVletrCotVq1bp9ddf1++//65HHnnE0XEAAHAod0cHAADAERISEvT3v/9dkjRp0iS9+OKLWZZZsWKF+vbtqytXrphO6pcvX65NmzYpNTW1wPOa2bBhg+Li4tStWzcFBwdLutOkHDt2rEPyGIahUaNGqXHjxurUqZNDMhS0vn37qm/fvo6OAROO/nsEAAAoTBw5L3B25cqV0+zZsx0dAyZ+/PFHrVy5UvXr13d0FAAAHI4GMACgSFq1apVu3rypJk2amDZ/Jalr16764YcfFBgYaOd0OTN58mQtWrRIwcHBlgawI8XFxWn48OFq2LCh0zaAAQAAAAAAAKCw4x4lAIAi6fz585KU7a1ia9SooYCAgEzrxcTEKCYmRgcPHpQkjR492jIWExOjiRMnZtnO1q1b9fzzz+uhhx5SSEiIwsPD9dRTT2nr1q02X//atWv68MMPFRkZqbCwMDVo0EDPPvusFi5cqG+++UZ16tRR586dM63z2muvKTY2VufOncs0npSUpNjYWA0fPlyS9Ouvv+r1119Xo0aNFBISokaNGumNN97Q2bNnbWb66aef1LdvX9WtW1dVqlRRVFSUJk2apIynSmRcWZ1Tqampmjp1qh577DHVrFlTVatW1aOPPqqPP/5Y165dM10nYx+vX7+ua9eu6YMPPlCLFi0UGhqq8PBw9e7dWzt37syy3vjx4xUbG6uVK1fazGQYhp5//nnFxsbq119/tYxPnTpVsbGx2rhxo81MZ86c0ZAhQ9SpUyd17dpVH374YZblr169qs8//1ydO3dWeHi4atSooXbt2unDDz/UhQsXrGbLyLB7925J0sKFC9WpUydVq1ZN1apVU5cuXfT1119bXf/unBcuXNDgwYPVsGFDhYWFqWXLlpoyZYpl2du3b2vKlCmWz1+dOnX00ksvKSEhweb7l5CQoHfffVetWrVSWFiYatWqpe7du2vp0qWmy+f1s5nXv0cAAICiwGxecL/Hwxlye7yXE7t27dKLL76oJk2aqHLlyqpfv74GDhyoXbt2mS7//fffKzY2VvPnz5d0Z57y9NNPKyIiQqGhoWrdurXGjx+v69evZ1rv+PHjio2N1cCBA5Wenm4z06pVqxQbG5vpmDLj2PXVV1/NNtPSpUv11FNP6dFHH1W/fv0UFxeXZZ09e/bo5ZdfVrNmzRQaGqrGjRurb9++2rx5s9Vc9zu3u3tOkZ6erk8//VQtW7ZUaGioGjVqpMGDByslJcWy/Jo1a9StWzdVr15d1apVU/fu3fXjjz/afO/yMs/L61znlVdeUUxMjKW2dOnSTHOCF154wWZWAACckgEAQBE0d+5cQ5JRqVIlIy0tLcfrHT9+3JBk8+cvf/mLZfnr168bzzzzjKXm5eVlBAcHGz4+PoYkw8XFxZgzZ47payUmJhrh4eGGJMPNzc2oXLmyUbJkScu22rRpY5w9ezbLepUrVzYkGUePHjXN/tBDDxm7du0yypQpY0gyypYta5QrV86y3fLlyxtnzpwxzTRx4kTD1dXVkGSULFnSqFy5suHm5mZIMooVK2Z88cUXOX4vDcMwDh48aNSsWdPy2sHBwUb58uUt/1ynTh2b+5iQkGA0atTIkGT4+/sbwcHBhru7uyXP6tWrM603depUQ5LRrFkzm7nWrVtnSDKqVq2aabxPnz6GJGPatGlWMx04cMCoUKFCps9EZGRkpmXj4uIy7bevr69RokQJyz+XLVvW2Lx5s2m2jAwrVqwwBgwYYEgyvL29jUqVKlk+V5KMESNGmK5/9+ejatWqhiSjQoUKhq+vr2XdkSNHGjdv3jS6dOlieW+DgoIy/Z7Onz9vuv2lS5da9sXd3d2oWrVqps/tX/7yF+PWrVuZ1snrZzO3f48AAAAPohYtWhiSrM4brDGbF9zv8bBh5O14z5b09HRj2LBhhouLiyHJ8PHxMapXr254eXkZkgxXV1fjo48+yrLezJkzDUnGG2+8YcyaNctwd3c33NzcjODgYCMgIMCSp23btsbt27ct692+fduoVKmSISnLfOFerVq1yvLeZxyDVqxY0WamoUOHZjk23bBhQ6b9HjFihGW/XV1djVKlSlnmM5KMZ5991nS+er9zu4w5xbJly4xu3boZkozSpUsbpUuXtqwbFRVlGIZhjBkzxjLnqFixomU+WKxYMWPTpk2m71te53l5netkfNat/ZQtW9Y0JwAAzowGMACgSEpOTracpPjzn/9sOvnMTmRkpCHJ+O6776wuM2zYMEOSUb16dWPlypWWEyG3bt0yJk+ebEgyAgMDTU+Q9OjRw5BkPPHEE0ZSUpJlfPny5Yavr69Rp04dIyUlJct62TWAK1asaFSrVs2Ijo424uPjLfWjR48a9evXNyQZL7zwQpbt7t2713BzczN8fX2N5cuXW8aTkpKMJ554wnBxcTFmzJhh4x3L7PLly0ZoaKghyejfv3+mhuLx48eNNm3aGJKMDh06WN3HyMhIo27dusaWLVssteTkZOPpp582JBm1a9fOtN6lS5csJw4OHTpkNVvv3r0NScaoUaMyjeekAdysWTOjUaNGxqpVq4xjx44Za9euzXRi5PLly5Zlu3TpYuzbt89SO3HihNG/f39DkuHn52ecOHEiy+tkZIiMjDQCAgKML7/80rh+/bphGIZx48YN46OPPrJ8aeDXX3+1mjM8PNzo1KmTcfz4cUtt3rx5houLi+Hj42P069fPCAoKMv773/8a6enphmEYxuHDh41q1apZmsT32rlzp1GsWDHDy8vL+OCDDyy5DMMwNm7caHntMWPGZFrvfj+bhpGzv0cAAIAHUX42gO/3eDivx3u2TJw40ZDufDl3xYoVlmPP27dvG5999pnh7e1tuLi4ZDrmN4w/mq1NmzY1vL29jeHDhxsXL1601L/77jvLnG/BggWZ1s1ozsbExFjN9csvvxguLi5GiRIljNTUVMt4ThrATZo0MTw9PY0RI0YY+/fvNw4ePGhMnTo107wv47i9RIkSxvTp0y1zu+vXrxtLliwxKlasaEgyXnnllSyvc7/HzxlzivDwcODZwfkAABcASURBVKNatWqZ3tudO3caZcuWNSQZL730klGsWDHj3//+t6URffHiRaNr166GdOdLyfe6n3ne/c51RowYYUgyhg4dmqUGAEBRQwMYAFBkLV682PLtajc3N6Nt27bG6NGjjc2bNxs3btzIdv2cNJzOnj1rPPbYY0ZycrJpPaOZduDAgUzjly5dMtzd3Y3ixYsbly5dyrLee++9Z0gyxo4dm6WWXQM4Y7KdcWLlbhs2bDAkGZUrV85Se+uttwxJxvDhw7PULl++bJQsWdIoWbJkppNAtgwZMsTmFZopKSlGYGCgIcnYu3ev6T6WK1cuU3M8Q2pqquXE1t0NTsP442TWoEGDrL6ur6+v4erqapw6dSpTLScN4IoVK2Y68WRtv6OiojJdiXC3Z5991pBk9OzZM0stI4PZSbAMGZ/NmTNnWs0ZERFh+rvq0KGD5XNitv0ZM2ZkuiLgbs2bNzckGZ999plpru3btxuSjDJlymTa9/v9bN69zzSAAQCAs8nPBrBh3N/xcF6P96y5ePGi4ePjY7i5uRn79+83Xeaf//ynIcmIjo7ONJ7RbJVkjB492nTdjIZgnz59Mo0fO3bMcHFxMby8vKzO1TK+zDtw4MBM4zlpAEsyPvjgA2u7bSQnJxs+Pj6Gi4uLsW7dOtNlDh8+bHh5eRkuLi5Z3pv7PX7OmFN4enoax44dy1LPuOrX2nsbHx9vSDI8PDyMmzdvZqrdzzzvfuc6NIABAPgDzwAGABRZ0dHR+uGHH9S+fXulp6dr/fr1Gjp0qFq3bq3SpUurb9++ps9oyo1y5cpp1apV8vf3z1JLSUnR77//bvn/dzt9+rRu3bqlmjVrqkSJElnWbdq0qSRpx44deco1ZMgQubi4ZBlv1qyZJOnUqVNZnod1/PhxSdLDDz+cZT0/Pz9FRETo0qVLOnr0aI4yZDwX67XXXjOtFy9eXF27dpUkbdq0yXSZF154QaVLl84y7uPjo3r16kmSTpw4kanWr18/SdKcOXN0+/btLOsuXLhQqampevTRR7N9RrSZ5557TiVLlrRaX7BggSRp2LBhcnU1PxQbPny4XFxctHz5cl25csV0mcjISLVo0cK0lvF7vHff7/b888/Lw8Mjy3itWrUkSQ899JDp9jPqiYmJmcZPnjypbdu2qUSJEpb3+F6PPPKIqlSpoqSkJMsze++Vl88mAAAAci6vx8P5dbx3t2+++UZXr15V+/btFRERYbrMU089Jcn6nMDX11d//etfTWvWjourVq2qVq1aKS0tzTIvuZthGJozZ44kWd1XW3x8fPTSSy9ZrS9fvlxXr15Vq1at1LZtW9NlatSooV69eskwDMscwsz9HD936dJFVatWzTKecczv7u5uuh9hYWHy8vLSjRs3dPHixUy1/Jjn3e9cBwAASDSAAQBFWuPGjbVmzRqdOXNGc+bM0YABAxQWFqaUlBTNnj1b9evX1+eff55vr3fr1i3t2bNHH374oRo2bKjk5GRJd04w3C2jgXjvZDpDxnp+fn65zuDu7m5pIN/L09NTnp6eMgxD165dK7BM586d0/Hjx1WsWDFFREQoLS3N9Kdy5cqSpDNnzphup2XLllZfIyNvampqpvE2bdooLCxMZ86c0Zo1a7KsN2vWLEl5O9Ejyep7K0m//fab4uPjVaxYMasnNCSpcuXKCg0NVVpamnbu3Gm6TF72/W6NGzc2Hff29pYkNWnSxGb91q1bmca3b98uSWrQoIHS09Ot/k7DwsIkmf9O8/rZBAAAQM7l9Xg4P4737pWxzcaNG1vdXmBgoDw8PPT777/r+vXrWbbRsGFD+fr6mm7f1nFxxv5l7O/dNmzYoBMnTqhmzZqWhmNu1K9f33LcbGbbtm2S7vwubMmob9myxbR+v8fP2c0Jqlevbvpl5oztS5nnBY6c5wEAgMxoAAMAoDtX6sbGxmratGmKj4/Xjh071KFDB928eVPPP/98nq+0laTLly/ro48+UuvWrVWiRAk1aNBAb7zxhq5du6YyZcqYrhMcHKyIiAj98ssvWU7K3L59W5MmTZIkRUVF5TqPv7+/ZbJuy71N6ccee0ySNHXq1CxXCqxdu1aHDh1StWrVcnTV7NmzZyVJN2/elJ+fn7y9vU1/RowYIUmmJ3qkO7+33O6Hi4uL+vbtK0maOXNmplp8fLy2bNkif39//fnPf85222YqVKhgtfbbb79JkoKCgkyvvr1bcHBwpnXulZd9v1upUqVsrhsYGJjt9u+W8TvdvHmz1d+nt7e31q1bJ8n8d5rXzyYAAAByLq/Hw/lxvHevjG2OGjXK5jZv3LghSZb/vVtej4t79Oih4sWL66efftKBAwcy1WbPni0p718KtTUnkP44xs9u7pTdnOB+j58Lak7giHkeAADIzN3RAQAAKIwaN26sb7/9Vm3bttXGjRv1ySefWE4C5EZcXJw6duyo06dPy8/PT1FRUapfv76aNGmiTp06qUuXLpYTJPeaPHmy2rdvr65du6p///6qX7++Ll68qAULFmj37t1q0qSJYmJicp0pJycIzERHR6tr165asWKFGjdurJiYGPn7+2vPnj2Wq6T/9a9/md5+7F5paWmS7twa7Yknnsh2+VatWpmO53Vf+vTpo5EjR2rZsmW6cOGC5cTH7NmzZRiGevXqJS8vrzxt29Z6Gfvt7p79IVixYsUyrXOvvO57Bjc3txy9fk5l5AwLC1Pz5s2zXb5GjRpZxu53nwAAAJAzeTkezo/jvXtlbLNp06amtyK+W7FixUyv9M3rMaSvr6969uypGTNmaNasWfrXv/4lSbpy5YoWL14sNzc39e7dO0/bzm4ukdN5wYM6J3DUPA8AAPyBBjAAAFa4uLiod+/e2rhxo3bv3p2nbfTp00enT59Wv3799PHHH2c5YWH2zK0MrVq1sjShJ0+ebBl3dXVVjx49NHny5FxPyO+Hq6urlixZos6dO+u7777L9J6UL19eEydOzPFVs0FBQZZtzp07t0Dy2lK5cmW1bdtW69at05dffqmXX35ZhmHoiy++kJT3b/pnJ2O/L1y4kO2yGc+HLlu2bIFkyW8Z+xYREeGQ3ykAAAByLi/HwwVxvJexze7du+uNN97Il23mRr9+/TRjxgzNmTNH77//vtzd3bVo0SKlpqaqc+fO2V7Jm1c5nRc8qHMCR83zAADAH7gFNACgSLp27Zr+85//5Hj5nFyxea+kpCTt2LFDxYoV0yeffGL6bfWEhASr68+YMUMdO3ZUr169NH/+fM2ZM0crVqzQqVOntHDhQpUuXTrXme7HxYsX1bx5c+3Zs0eTJk3S/PnzNX/+fG3dulWnT59W9+7dc7ytihUrytvbW1euXNGxY8cKMLV1zz77rKQ/bnu3ceNGnThxQhEREXr44YcL5DWDg4Pl6+urlJQUm/t97do1HTp0SJJUs2bNAsmS36pVqyZJ2rVrl4OTAAAAICdyezxcEMd7jj6GbNmypWrUqKFz585p1apVkqw/Azk/1apVS5L0888/21wu4315UOYEhWGeBwAA7qABDAAokvr166cnnnhCmzZtsrnc+vXrJUm1a9fOUvP29pZ05xZhZlJSUiRJHh4elmXvdvjwYR09etTqaw8ZMkQ3btzQ9OnTFRMTo9jYWP3pT39SxYoVbWYuKAsWLNCOHTvUr18/vfjii4qJiVFMTIyaN2+e7a3D7uXp6akOHTpIkqZPn251uXXr1mns2LGmz/q6X9HR0SpZsqR+/vln7d271y4nejw8PNS5c2dJstw228y8efN0/fp1NWzYUGFhYQWWJz+1aNFCpUuXVkJCgr799lury02cOFFLlizJ99fP7u8RAAAAmeX2eLggjve6desmSVq2bJmSkpJMlzEMQ6+99pr27NmTo23m1t3PQ46Pj9f333+v0qVLW7IVhIw7Jy1fvlznz583Xeb69euWq2iffPLJAsuSnxw9z2NOAADAH2gAAwCKJA8PD928eVMdOnTQuHHjdOnSpUz19PR0TZ48WfPmzZMkDRgwIMs2qlSpIklavXp1pvGM23hVrFhRPj4+Sk1NtTSSM6Smpuq5556z/LPZM50CAwMl3WkEb9myRfv27dOxY8eUkJCg1NTU3O7yfcvIs3DhQi1evFg///yzDh06pBMnTuj8+fNKT0/P1fbefPNNubq6avz48fryyy+z1A8ePKh+/fppyJAhlqth85OXl5flGcqjR4/W4sWL5e7urtjY2Hx/rbu9/fbbcnd31/jx47VgwYIs9c2bN+utt96SJL3zzjsFmiU/ubm56fXXX5ck9e/f3/QqjiVLlujNN9/U3/72N6vPMcur7P4eAQAAkFluj4cL4nivQYMGat++va5cuaInn3wySxM4PT1dgwYN0oQJEzRq1Kjc7mKOPPPMM3Jzc9PKlSs1YsQIGYahp556Sh4eHgXyepIUHh6u6OhopaSkqGfPnpZbPWe4evWqBgwYoPj4eDVq1MjyJdIHgSPneRlzgnXr1unWrVuW8XvfXwAAigKeAQwAKJKmTZumq1evavHixRo0aJBGjhyp+vXrq3z58kpLS9Pu3bt19uxZSXcasG3atMmyjV69emnSpEn67LPPdPz4cYWFhWn79u3y8fHR1q1b5eHhoQEDBmjixImKjo7WCy+8oNq1ayshIcFym7XBgwfr/fff19/+9jc98sgj+uSTTyzP9Z01a5Y6d+6sCRMmaMKECVlev3LlyhowYICloVjQoqOjNXDgQE2bNs30ds9eXl6KjIzU+++/r4YNG2a7vZYtW+rdd9/VsGHD9PTTT2vs2LFq1qyZ3NzcdPToUa1fv163b9/WyJEjVa9evYLYJT377LOaMmWKFi5cKOnOFQgF/XytRo0aacKECXr11VfVq1cvjR07Vo888ojc3d21d+9ebdmyxXKVQ3R0dIFmyW+DBg3S999/r2+//VaNGzdWVFSUateurbS0NP3888/6+eef5enpqWnTpsnLyytfXzu7v0cAAIAH3ejRo21eVSlJK1euVPHixXO8zdweDxfE8d7nn3+uyMhIbd68WWFhYerQoYOCg4OVnJysjRs36vTp0woJCdH48eNzvF+5UbFiRXXo0EGrVq2yXHFbkHcFyvDZZ5/pyJEj2rhxY6b9TkpK0nfffafExERVqFBBc+fOtct8L784cp7Xvn17BQYGav/+/WrcuLFatGihY8eO6YcfftDJkycVEBCQr68HAEBh9uAcPQAAkI88PT319ddfa9myZZo4caK+//57bd++3VJ3cXHRI488orfffttye657tWzZUp988okGDx6c6arDLl266ObNmypWrJjGjRunmzdvavr06Ro3bpxlmaioKH3++ecqXbq0vv/+e23ZskUHDx7U4MGDFRoaqri4OI0aNUqpqalq2rSpgoKCdPXqVaWkpOjy5ctKSEjQyZMnNWzYMCUmJmrixIkF92ZJun37tj766CNt2LBBwcHBioiIkJubm1JSUpSSkqLk5GSdPn1aq1ev1rZt27R3716FhoZmu9133nlHdevW1ZgxY/TTTz9p7969llrNmjU1ePBg9enTp8D2q0mTJoqIiNCBAwck2edEjyT93//9n2rUqKH33ntPW7Zs0e7duy21evXqadCgQXrqqafskiU/ubm56T//+Y8++OADTZ48WevWrdO6dess9TZt2mjMmDFq1qxZvr92Tv4eAQAAHmSHDh3K9orJu696zIncHg8XxPFepUqVtHPnTg0dOlRffvllpttHe3h4WJqIBfkonH79+lmeAVy/fv0cfaH1fgUGBuqHH37QiBEjNGvWLC1evNhS8/X1Vb9+/TRmzBiVK1euwLPkN0fN8/z9/bVw4UI9++yz2rNnj+W24REREfr9999pAAMAihQXwzAMR4cAAMDRrl69qmPHjunixYvy8/NTpUqVVKZMmRytm5aWpmPHjunq1auqXr266aTy8uXLOnjwoNLT0xUaGqoKFSpkql+5ckXFihWTp6enfvvtN9WuXVuGYWj79u2qVatWlu0ZhqEpU6boxRdflJeXly5fvlygDa63335bY8eO1UsvvaSJEyeaPvP3t99+U8eOHbV371699957GjZsWK5eIzExUadOndKtW7dUsWJFBQcHy8XFJb92odBKSkrSyZMndevWLVWqVCnLZ+NBZRiGTp06pTNnzsjT01MhISE5/pu6Hzn5ewQAAMD9K4jjvRs3bujEiRNKTExUQECAQkND5evrm0+JC6+bN2/qxIkTOnfunEqXLq3Q0FDL82wfdI6Y592+fdvyflauXLlAvzwAAEBhRQMYAIBCZu7cuerdu7cef/xxffPNN1aXu3nzpry8vJSenq6kpCSVLl26wDJVq1ZNv/zyi3bt2qUGDRpYXW748OH6xz/+oZdfflkff/xxgeUBAAAAAAAAAJhzdXQAAACQWcbzneLj45Wenm51ud27dys9PV2lS5cu0Obv3ZmOHTtmc7mdO3dKkmrUqFGgeQAAAAAAAAAA5mgAAwBQyDz22GMqVaqU9u3bpx49euinn37SjRs3LPWzZ89q2rRp+tOf/iRJev311ws8U8bzaJ9//nlNmzZN586ds9Ru3Lih7du3q2fPnvrvf/+roKAg9e7du8AzAQAAAAAAAACy4hbQAAAUQps3b1bPnj0tjVZXV1f5+Pjo+vXrunnzpqQ7V+W+8cYbev/99wv8GUo3b97UgAED9MUXX1jGPD095e7urtTUVMtY7dq1tWDBAtWrV69A8wAAAAAAAAAAzNEABgCgkLpy5YqWLl2qLVu26OTJk7py5Yq8vb0VGBioJk2a6PHHH1dYWJhdM+3atUvLli3TgQMHlJSUpNu3bysgIEChoaF69NFH1alTJ8vtogEAAAAAAAAA9kcDGAAAAAAAAAAAAACcBM8ABgAAAAAAAAAAAAAnQQMYAAAAAAAAAAAAAJwEDWAAAAAAAAAAAAAAcBI0gAEAAAAAAAAAAADASdAABgAAAAAAAAAAAAAnQQMYAAAAAAAAAAAAAJwEDWAAAAAAAAAAAAAAcBI0gAEAAAAAAAAAAADASdAABgAAAAAAAAAAAAAnQQMYAAAAAAAAAAAAAJwEDWAAAAAAAAAAAAAAcBI0gAEAAAAAAAAAAADASdAABgAAAAAAAAAAAAAnQQMYAAAAAAAAAAAAAJwEDWAAAAAAAAAAAAAAcBI0gAEAAAAAAAAAAADASdAABgAAAAAAAAAAAAAnQQMYAAAAAAAAAAAAAJwEDWAAAAAAAAAAAAAAcBI0gAEAAAAAAAAAAADASdAABgAAAAAAAAAAAAAnQQMYAAAAAAAAAAAAAJwEDWAAAAAAAAAAAAAAcBI0gAEAAAAAAAAAAADASdAABgAAAAAAAAAAAAAnQQMYAAAAAAAAAAAAAJwEDWAAAAAAAAAAAAAAcBI0gAEAAAAAAAAAAADASdAABgAAAAAAAAAAAAAnQQMYAAAAAAAAAAAAAJwEDWAAAAAAAAAAAAAAcBI0gAEAAAAAAAAAAADASdAABgAAAAAAAAAAAAAnQQMYAAAAAAAAAAAAAJwEDWAAAAAAAAAAAID/154dyAAAAAAM8re+x1caAUwIYAAAAAAAAIAJAQwAAAAAAAAwIYABAAAAAAAAJgQwAAAAAAAAwIQABgAAAAAAAJgQwAAAAAAAAAATAhgAAAAAAABgQgADAAAAAAAATAhgAAAAAAAAgAkBDAAAAAAAADAhgAEAAAAAAAAmBDAAAAAAAADAhAAGAAAAAAAAmBDAAAAAAAAAABMCGAAAAAAAAGBCAAMAAAAAAABMCGAAAAAAAACACQEMAAAAAAAAMCGAAQAAAAAAACYEMAAAAAAAAMCEAAYAAAAAAACYEMAAAAAAAAAAEwFyBBoJLXHrYQAAAABJRU5ErkJggg==;clipPath=inset(7.99% 13.67% 8.58% 14.67%);" vertex="1" parent="1">
          <mxGeometry x="70" y="200" width="2653.19" height="1740" as="geometry" />
        </mxCell>
        <mxCell id="Eqsi48yskrdOmXO4-OAM-3" value="&lt;font style=&quot;font-size: 70px;&quot;&gt;Staging environment&lt;/font&gt;" style="rounded=0;whiteSpace=wrap;html=1;strokeColor=none;" vertex="1" parent="1">
          <mxGeometry x="240" y="140" width="790" height="60" as="geometry" />
        </mxCell>
        <mxCell id="Eqsi48yskrdOmXO4-OAM-4" value="&lt;font style=&quot;font-size: 70px;&quot;&gt;Live environment&lt;/font&gt;" style="rounded=0;whiteSpace=wrap;html=1;strokeColor=none;" vertex="1" parent="1">
          <mxGeometry x="1770" y="135" width="790" height="60" as="geometry" />
        </mxCell>
        <mxCell id="Eqsi48yskrdOmXO4-OAM-5" value="&lt;font style=&quot;font-size: 70px;&quot;&gt;Production&lt;/font&gt;" style="rounded=0;whiteSpace=wrap;html=1;strokeColor=none;" vertex="1" parent="1">
          <mxGeometry x="1185.7900000000002" y="960" width="398.41" height="60" as="geometry" />
        </mxCell>
        <mxCell id="Eqsi48yskrdOmXO4-OAM-8" value="" style="rounded=0;whiteSpace=wrap;html=1;strokeColor=none;" vertex="1" parent="1">
          <mxGeometry x="1180" y="1150" width="410" height="60" as="geometry" />
        </mxCell>
        <mxCell id="Eqsi48yskrdOmXO4-OAM-9" value="&lt;font style=&quot;font-size: 70px;&quot;&gt;Non-production&lt;/font&gt;" style="rounded=0;whiteSpace=wrap;html=1;strokeColor=none;" vertex="1" parent="1">
          <mxGeometry x="1169.9900000000002" y="1190" width="430" height="60" as="geometry" />
        </mxCell>
      </root>
    </mxGraphModel>
  </diagram>
</mxfile>
